<?xml version="1.0" encoding="UTF-8" standalone="no"?>
<!-- Created with Inkscape (http://www.inkscape.org/) -->
<svg
   xmlns:dc="http://purl.org/dc/elements/1.1/"
   xmlns:cc="http://web.resource.org/cc/"
   xmlns:rdf="http://www.w3.org/1999/02/22-rdf-syntax-ns#"
   xmlns:svg="http://www.w3.org/2000/svg"
   xmlns="http://www.w3.org/2000/svg"
   xmlns:sodipodi="http://sodipodi.sourceforge.net/DTD/sodipodi-0.dtd"
   xmlns:inkscape="http://www.inkscape.org/namespaces/inkscape"
   height="1052.3622"
   id="svg1093"
   version="1.0"
   width="744.09448"
   x="0.0000000"
   y="0.0000000"
   sodipodi:version="0.32"
   inkscape:version="0.45.1"
   sodipodi:docname="grune_punkt_andrei_z_01_modified.svg"
   inkscape:output_extension="org.inkscape.output.svg.inkscape"
   sodipodi:docbase="/home/jmfernandez/projects/INBWorkflowLauncher/media">
  <sodipodi:namedview
     inkscape:cy="537.84947"
     inkscape:cx="305.25953"
     inkscape:zoom="1"
     inkscape:window-height="617"
     inkscape:window-width="794"
     inkscape:pageshadow="2"
     inkscape:pageopacity="0.0"
     guidetolerance="10.0"
     gridtolerance="10.0"
     objecttolerance="10.0"
     borderopacity="1.0"
     bordercolor="#666666"
     pagecolor="#ffffff"
     id="base"
     inkscape:window-x="598"
     inkscape:window-y="0"
     inkscape:current-layer="svg1093" />
  <metadata
     id="metadata42">
    <rdf:RDF>
      <cc:Work
         rdf:about="">
        <dc:title>Grune Punkt</dc:title>
        <dc:description />
        <dc:subject>
          <rdf:Bag>
            <rdf:li>green</rdf:li>
            <rdf:li>point</rdf:li>
            <rdf:li>punkt</rdf:li>
            <rdf:li>grune</rdf:li>
          </rdf:Bag>
        </dc:subject>
        <dc:publisher>
          <cc:Agent
             rdf:about="http://www.openclipart.org">
            <dc:title>Andrei Z</dc:title>
          </cc:Agent>
        </dc:publisher>
        <dc:creator>
          <cc:Agent>
            <dc:title>Andrei Z</dc:title>
          </cc:Agent>
        </dc:creator>
        <dc:rights>
          <cc:Agent>
            <dc:title>Andrei Z</dc:title>
          </cc:Agent>
        </dc:rights>
        <dc:date />
        <dc:format>image/svg+xml</dc:format>
        <dc:type
           rdf:resource="http://purl.org/dc/dcmitype/StillImage" />
        <cc:license
           rdf:resource="http://web.resource.org/cc/PublicDomain" />
        <dc:language>en</dc:language>
      </cc:Work>
      <cc:License
         rdf:about="http://web.resource.org/cc/PublicDomain">
        <cc:permits
           rdf:resource="http://web.resource.org/cc/Reproduction" />
        <cc:permits
           rdf:resource="http://web.resource.org/cc/Distribution" />
        <cc:permits
           rdf:resource="http://web.resource.org/cc/DerivativeWorks" />
      </cc:License>
    </rdf:RDF>
  </metadata>
  <defs
     id="defs1096" />
  <path
     sodipodi:type="arc"
     style="opacity:1;color:#000000;fill:#ffffff;fill-opacity:1;fill-rule:evenodd;stroke:none;stroke-width:1;stroke-linecap:butt;stroke-linejoin:miter;marker:none;marker-start:none;marker-mid:none;marker-end:none;stroke-miterlimit:4;stroke-dasharray:none;stroke-dashoffset:0;stroke-opacity:1;visibility:visible;display:inline;overflow:visible"
     id="path3286"
     sodipodi:cx="200.5"
     sodipodi:cy="536.86218"
     sodipodi:rx="112.5"
     sodipodi:ry="112.5"
     d="M 313 536.86218 A 112.5 112.5 0 1 1  88,536.86218 A 112.5 112.5 0 1 1  313 536.86218 z"
     transform="matrix(1.1105803,0,0,1.1283581,153.13484,-109.9735)"
     inkscape:export-filename="/home/jmfernandez/projects/INBWorkflowLauncher/weblauncher/style/recycle.png"
     inkscape:export-xdpi="8.2637177"
     inkscape:export-ydpi="8.2637177" />
  <path
     d="M 346.55474,620.50612 C 328.15628,616.65714 304.54806,604.27827 290.10678,590.90787 C 275.60644,577.48277 265.65730,557.97528 261.87851,547.13346 C 256.89806,532.84399 255.78192,510.45262 259.30520,495.50969 C 267.96847,458.76696 301.47388,423.57091 339.10505,411.68322 C 346.65441,409.29838 355.53418,407.34714 358.83786,407.34714 L 364.84453,407.34714 L 364.84453,396.02488 C 364.84453,382.06675 365.79956,381.86037 385.10997,391.64535 C 401.89535,400.15086 421.16749,416.07376 431.80629,430.22652 C 441.99607,443.78191 442.77808,447.12840 438.04208,456.91166 C 429.46832,474.62270 405.37743,494.40628 382.58945,502.44967 C 364.80497,508.72700 364.84453,508.74485 364.84453,494.44142 C 364.84453,480.20095 364.97377,480.26257 348.28401,486.54459 C 325.52999,495.10919 302.94292,514.06679 294.19889,531.93893 L 289.31578,541.91963 L 293.21626,549.27211 C 302.28401,566.36500 337.96719,596.28078 356.98098,602.73071 L 365.71548,605.69365 L 366.22726,593.61468 L 366.73904,581.53571 L 372.32387,581.51502 C 381.26368,581.48194 396.05515,576.93264 410.13356,569.88616 C 428.72672,560.58002 453.89138,535.36346 462.82515,517.08593 C 482.89102,476.03328 477.17834,439.09779 445.98613,408.21287 C 429.29088,391.68210 415.06272,382.99772 393.12934,375.95088 C 382.65494,371.55400 364.25930,369.51989 347.60937,373.44461 C 341.48313,374.88871 336.12903,375.72848 335.71134,375.31078 C 335.29365,374.89309 341.01366,373.20273 348.42247,371.55445 C 366.09824,367.62194 393.65386,368.82818 411.00451,374.29393 C 454.18574,387.89672 486.68770,421.61806 498.26611,464.82935 C 502.38930,480.21728 502.38930,512.14933 498.26611,527.53725 C 480.34934,594.40364 414.54361,634.72945 346.55474,620.50612 z "
     id="path2475"
     style="fill:#2aa100;fill-opacity:1.0000000;stroke:none;stroke-opacity:1.0000000"
     inkscape:export-filename="/home/jmfernandez/projects/INBWorkflowLauncher/weblauncher/style/recycle.png"
     inkscape:export-xdpi="8.2637177"
     inkscape:export-ydpi="8.2637177" />
</svg>
