<?xml version="1.0" encoding="UTF-8" standalone="no"?>
<!-- Generator: Adobe Illustrator 13.0.0, SVG Export Plug-In . SVG Version: 6.00 Build 14948)  -->
<svg
   xmlns:dc="http://purl.org/dc/elements/1.1/"
   xmlns:cc="http://creativecommons.org/ns#"
   xmlns:rdf="http://www.w3.org/1999/02/22-rdf-syntax-ns#"
   xmlns:svg="http://www.w3.org/2000/svg"
   xmlns="http://www.w3.org/2000/svg"
   xmlns:sodipodi="http://sodipodi.sourceforge.net/DTD/sodipodi-0.dtd"
   xmlns:inkscape="http://www.inkscape.org/namespaces/inkscape"
   version="1.1"
   id="Layer_1"
   x="0px"
   y="0px"
   width="489.004px"
   height="463.9px"
   viewBox="0 0 489.004 463.9"
   enable-background="new 0 0 489.004 463.9"
   xml:space="preserve"
   sodipodi:version="0.32"
   inkscape:version="0.46"
   sodipodi:docname="IWWEM-logo-CC.svg"
   inkscape:output_extension="org.inkscape.output.svg.inkscape"><metadata
   id="metadata2921"><rdf:RDF><cc:Work
       rdf:about=""><dc:format>image/svg+xml</dc:format><dc:type
         rdf:resource="http://purl.org/dc/dcmitype/StillImage" /><cc:license
         rdf:resource="http://creativecommons.org/licenses/by/3.0/" /><dc:title>IWWE&amp;M Logo</dc:title><dc:date>2008-08-29</dc:date><dc:creator><cc:Agent><dc:title>Jaime Fernández Vera</dc:title></cc:Agent></dc:creator><dc:rights><cc:Agent><dc:title>Jaime Fernández Vera</dc:title></cc:Agent></dc:rights><dc:publisher><cc:Agent><dc:title>Instituto Nacional de Bioinformática</dc:title></cc:Agent></dc:publisher><dc:language>en</dc:language><dc:contributor><cc:Agent><dc:title>Jaime Fernández Vera
José María Fernández González</dc:title></cc:Agent></dc:contributor></cc:Work><cc:License
       rdf:about="http://creativecommons.org/licenses/by/3.0/"><cc:permits
         rdf:resource="http://creativecommons.org/ns#Reproduction" /><cc:permits
         rdf:resource="http://creativecommons.org/ns#Distribution" /><cc:requires
         rdf:resource="http://creativecommons.org/ns#Notice" /><cc:requires
         rdf:resource="http://creativecommons.org/ns#Attribution" /><cc:permits
         rdf:resource="http://creativecommons.org/ns#DerivativeWorks" /></cc:License></rdf:RDF></metadata><defs
   id="defs2919"><inkscape:perspective
     sodipodi:type="inkscape:persp3d"
     inkscape:vp_x="0 : 231.95 : 1"
     inkscape:vp_y="0 : 1000 : 0"
     inkscape:vp_z="489.004 : 231.95 : 1"
     inkscape:persp3d-origin="244.502 : 154.63333 : 1"
     id="perspective2923" /></defs><sodipodi:namedview
   inkscape:cy="220.84362"
   inkscape:cx="116.99432"
   inkscape:zoom="1.7366334"
   inkscape:window-height="1030"
   inkscape:window-width="1400"
   inkscape:pageshadow="2"
   inkscape:pageopacity="0.0"
   guidetolerance="10.0"
   gridtolerance="10.0"
   objecttolerance="10.0"
   borderopacity="1.0"
   bordercolor="#666666"
   pagecolor="#ffffff"
   id="base"
   showgrid="false"
   inkscape:window-x="-4"
   inkscape:window-y="-8"
   inkscape:current-layer="Layer_1" />


















<g
   id="g2806"
   transform="translate(172.74803,25.336378)">
	<g
   id="g2808">
		<g
   id="g2810">
			<path
   style="fill:none;stroke:#2c5aa0;stroke-opacity:1"
   d="M 20.521,309.438 C 20.981,309.438 20.117,291.817 20.521,291.817 C 20.928,291.817 21.707,309.975 22.111,309.975 C 22.84,309.975 21.561,285.057 22.111,285.057 C 22.729,285.057 23.254,312.112 23.968,312.112 C 24.666,312.112 23.384,285.809 23.968,285.809 C 24.706,285.809 25.177,311.35 25.766,311.35 C 26.478,311.35 25.164,283.799 25.766,283.799 C 26.523,283.799 26.971,311.229 27.612,311.229 C 28.23,311.229 27.006,287.118 27.612,287.118"
   id="path2812" />
			<path
   style="fill:none;stroke:#2c5aa0;stroke-opacity:1"
   d="M 31.809,284.538 C 31.827,284.538 31.793,284.44 31.809,284.44 C 31.994,284.44 33.216,292.542 33.4,292.542 C 33.631,292.542 33.224,285.165 33.4,285.165 C 33.817,285.165 34.774,303.392 35.256,303.392 C 35.715,303.392 34.872,285.917 35.256,285.917 C 35.983,285.917 36.474,311.065 37.054,311.065 C 37.755,311.065 36.461,283.911 37.054,283.911 C 37.812,283.911 38.259,311.352 38.9,311.352 C 39.519,311.352 38.294,287.223 38.9,287.223 C 39.545,287.223 40.122,312.432 40.775,312.432 C 41.156,312.432 40.301,294.147 40.775,294.147 C 41.268,294.147 41.95,310.836 42.332,310.836 C 42.657,310.836 41.994,298.369 42.332,298.369 C 42.637,298.369 43.619,310.76 43.969,310.76 C 44.411,310.76 43.493,291.223 43.969,291.223 C 44.441,291.223 45.527,307.399 45.875,307.399 C 46.34,307.399 45.353,286.635 45.875,286.635 C 46.341,286.635 47.299,302.936 47.739,302.936 C 48.145,302.936 47.345,285.637 47.739,285.637 C 47.983,285.637 48.997,296.076 49.256,296.076 C 49.506,296.076 49.038,287.051 49.256,287.051 C 49.562,287.051 50.149,297.807 50.459,297.807 C 50.76,297.807 50.113,287.043 50.459,287.043 C 50.843,287.043 51.944,305.859 52.374,305.859 C 52.826,305.859 51.82,286.634 52.374,286.634 C 53.099,286.634 53.548,312.331 54.294,312.331 C 54.9,312.331 53.736,287.47 54.294,287.47 C 54.964,287.47 55.007,311.333 55.672,311.333 C 56.121,311.333 55.189,292.118 55.672,292.118 C 56.093,292.118 56.914,310.264 57.34,310.264 C 57.57,310.264 57.033,301.633 57.34,301.633 C 57.634,301.633 58.652,311.426 58.904,311.426 C 59.343,311.426 58.365,291.115 58.904,291.115 C 59.357,291.115 59.42,313.211 60.013,313.211 C 60.737,313.211 59.325,286.961 60.013,286.961 C 60.564,286.961 60.74,311.357 61.253,311.357 C 61.881,311.357 60.689,287.019 61.253,287.019 C 61.732,287.019 62.22,308.486 62.857,308.486 C 63.419,308.486 62.439,285.281 62.857,285.281 C 63.164,285.281 63.927,299.906 64.279,299.906 C 64.65,299.906 63.966,285.953 64.279,285.953 C 64.425,285.953 66.008,291.211 66.168,291.211 C 66.359,291.211 66.027,284.861 66.168,284.861 C 66.24,284.861 67.42,288.103 67.494,288.103 C 67.513,288.103 67.476,286.888 67.494,286.888"
   id="path2814" />
			<path
   style="fill:none;stroke:#2c5aa0;stroke-opacity:1"
   d="M 67.808,284.876 C 67.827,284.876 67.791,284.778 67.808,284.778 C 67.995,284.778 69.215,292.878 69.4,292.878 C 69.629,292.878 69.224,285.501 69.4,285.501 C 69.816,285.501 70.773,303.73 71.254,303.73 C 71.713,303.73 70.871,286.255 71.254,286.255 C 71.982,286.255 72.474,311.403 73.054,311.403 C 73.754,311.403 72.459,284.245 73.054,284.245 C 73.81,284.245 74.259,311.688 74.9,311.688 C 75.517,311.688 74.294,287.561 74.9,287.561 C 75.546,287.561 76.122,312.768 76.775,312.768 C 77.157,312.768 76.3,294.493 76.775,294.493 C 77.267,294.493 77.952,311.177 78.333,311.177 C 78.657,311.177 77.995,298.708 78.333,298.708 C 78.638,298.708 79.618,311.099 79.97,311.099 C 80.411,311.099 79.493,291.56 79.97,291.56 C 80.443,291.56 81.529,307.736 81.876,307.736 C 82.341,307.736 81.355,286.972 81.876,286.972 C 82.342,286.972 83.3,303.273 83.739,303.273 C 84.144,303.273 83.345,285.978 83.739,285.978 C 83.982,285.978 84.997,296.416 85.257,296.416 C 85.507,296.416 85.038,287.395 85.257,287.395 C 85.564,287.395 86.15,298.157 86.46,298.157 C 86.761,298.157 86.114,287.387 86.46,287.387 C 86.845,287.387 87.943,306.205 88.374,306.205 C 88.827,306.205 87.821,286.976 88.374,286.976 C 89.101,286.976 89.549,312.677 90.294,312.677 C 90.9,312.677 89.737,287.814 90.294,287.814 C 90.965,287.814 91.008,311.677 91.673,311.677 C 92.122,311.677 91.189,292.462 91.673,292.462 C 92.095,292.462 92.915,310.61 93.341,310.61 C 93.571,310.61 93.034,301.977 93.341,301.977 C 93.636,301.977 94.653,311.77 94.905,311.77 C 95.343,311.77 94.366,291.458 94.905,291.458 C 95.357,291.458 95.421,313.554 96.013,313.554 C 96.739,313.554 95.325,287.304 96.013,287.304 C 96.566,287.304 96.741,311.7 97.254,311.7 C 97.882,311.7 96.689,287.362 97.254,287.362 C 97.732,287.362 98.222,308.827 98.857,308.827 C 99.42,308.827 98.439,285.622 98.857,285.622 C 99.165,285.622 99.927,300.247 100.28,300.247 C 100.652,300.247 99.967,286.296 100.28,286.296 C 100.427,286.296 102.009,291.548 102.169,291.548 C 102.359,291.548 102.028,285.202 102.169,285.202 C 102.241,285.202 103.419,288.444 103.495,288.444 C 103.513,288.444 103.476,287.229 103.495,287.229"
   id="path2816" />
			<path
   style="fill:none;stroke:#2c5aa0;stroke-opacity:1"
   d="M 114.296,289.97 C 114.419,289.97 114.138,285.368 114.296,285.368 C 114.507,285.368 115.066,293.62 115.312,293.62 C 115.435,293.62 115.187,286.925 115.312,286.925 C 115.404,286.925 117.23,290.025 117.31,290.025 C 117.441,290.025 117.152,284.65 117.31,284.65 C 117.503,284.65 118.297,292.759 118.501,292.759 C 118.64,292.759 118.362,288.048 118.501,288.048 C 118.647,288.048 119.623,292.909 119.73,292.909 C 119.874,292.909 119.623,284.888 119.73,284.888 C 119.95,284.888 121.429,292.72 121.63,292.72 C 121.757,292.72 121.511,284.868 121.63,284.868 C 121.785,284.868 123.31,291.266 123.504,291.266 C 123.666,291.266 123.353,284.905 123.504,284.905 C 123.626,284.905 124.48,290.784 124.603,290.784 C 124.73,290.784 124.452,285.598 124.603,285.598 C 124.751,285.598 125.81,291.746 125.939,291.746 C 126.097,291.746 125.794,286.455 125.939,286.455 C 126.034,286.455 127.335,289.904 127.413,289.904 C 127.556,289.904 127.293,287.724 127.413,287.724"
   id="path2818" />
			<path
   style="fill:none;stroke:#2c5aa0;stroke-opacity:1"
   d="M 114.199,301.376 C 114.323,301.376 114.093,296.896 114.199,296.896 C 114.343,296.896 115.898,301.472 116.003,301.472 C 116.136,301.472 115.859,296.038 116.003,296.038 C 116.124,296.038 117.808,300.737 117.931,300.737 C 118.066,300.737 117.796,295.274 117.931,295.274 C 118.075,295.274 119.73,301.723 119.925,301.723 C 120.036,301.723 119.773,293.971 119.925,293.971 C 120.15,293.971 121.285,301.739 121.464,301.739 C 121.595,301.739 121.351,296.053 121.464,296.053 C 121.629,296.053 122.693,302.178 122.853,302.178 C 122.972,302.178 122.749,294.987 122.853,294.987 C 123.009,294.987 124.443,300.661 124.568,300.661 C 124.712,300.661 124.455,297.349 124.568,297.349 C 124.646,297.349 126.273,300.384 126.359,300.384 C 126.506,300.384 126.22,295.005 126.359,295.005"
   id="path2820" />
			<path
   style="fill:none;stroke:#2c5aa0;stroke-opacity:1"
   d="M 106.193,310.243 C 106.656,310.243 105.789,292.548 106.193,292.548 C 106.601,292.548 107.379,310.78 107.785,310.78 C 108.514,310.78 107.234,285.866 107.785,285.866 C 108.402,285.866 108.929,312.915 109.64,312.915 C 110.337,312.915 109.056,286.622 109.64,286.622 C 110.377,286.622 110.849,312.155 111.439,312.155 C 112.15,312.155 110.836,284.618 111.439,284.618 C 112.196,284.618 112.644,312.034 113.285,312.034 C 113.902,312.034 112.681,287.936 113.285,287.936 C 113.931,287.936 114.509,313.12 115.16,313.12 C 115.293,313.12 114.996,305.772 115.16,305.772 C 115.336,305.772 116.582,311.528 116.718,311.528 C 116.861,311.528 116.57,306.464 116.718,306.464 C 116.847,306.464 118.207,311.456 118.355,311.456 C 118.491,311.456 118.209,305.075 118.355,305.075 C 118.547,305.075 120.12,311.432 120.261,311.432 C 120.381,311.432 120.125,307.19 120.261,307.19 C 120.449,307.19 121.949,313.501 122.125,313.501 C 122.271,313.501 121.98,306.259 122.125,306.259 C 122.263,306.259 123.497,311.956 123.642,311.956 C 123.781,311.956 123.523,307.673 123.642,307.673 C 123.756,307.673 124.73,311.534 124.845,311.534 C 124.984,311.534 124.687,307.665 124.845,307.665 C 124.949,307.665 126.644,312.472 126.761,312.472 C 126.894,312.472 126.599,307.261 126.761,307.261"
   id="path2822" />
			<path
   style="fill:none;stroke:#2c5aa0;stroke-opacity:1"
   d="M 156.146,305.612 C 156.283,305.612 156.027,302.061 156.146,302.061 C 156.208,302.061 157.734,300.135 157.798,300.135 C 157.814,300.135 157.777,299.225 157.798,299.225"
   id="path2824" />
			<path
   style="fill:none;stroke:#2c5aa0;stroke-opacity:1"
   d="M 147.752,296.646 C 148.107,296.646 147.44,285.769 147.752,285.769 C 148.113,285.769 148.853,298.376 149.191,298.376 C 149.474,298.376 148.937,288.542 149.191,288.542 C 149.4,288.542 150.117,296.196 150.33,296.196 C 150.521,296.196 150.101,287.842 150.33,287.842 C 150.588,287.842 151.675,296.721 151.918,296.721 C 152.054,296.721 151.756,290.053 151.918,290.053"
   id="path2826" />
			<path
   style="fill:none;stroke:#2c5aa0;stroke-opacity:1"
   d="M 142.519,291.411 C 142.623,291.411 142.382,287.473 142.519,287.473 C 142.57,287.473 143.681,289.491 143.748,289.491 C 143.863,289.491 143.637,287.358 143.748,287.358 C 143.841,287.358 144.709,290.801 144.813,290.801 C 144.899,290.801 144.733,287.508 144.813,287.508 C 144.926,287.508 146.114,291.613 146.205,291.613 C 146.317,291.613 146.121,287.709 146.205,287.709"
   id="path2828" />
			<path
   style="fill:none;stroke:#2c5aa0;stroke-opacity:1"
   d="M 139.354,302.065 C 139.727,302.065 138.872,286.327 139.354,286.327 C 139.811,286.327 139.836,304.3 140.37,304.3 C 140.724,304.3 140.016,287.421 140.37,287.421 C 140.694,287.421 142.081,300.337 142.367,300.337 C 142.604,300.337 142.084,290.56 142.367,290.56 C 142.69,290.56 143.221,304.154 143.559,304.154 C 143.778,304.154 143.338,296.174 143.559,296.174 C 143.83,296.174 144.588,305.404 144.789,305.404 C 145.026,305.404 144.602,293.592 144.789,293.592 C 145.149,293.592 146.352,306.848 146.688,306.848 C 146.977,306.848 146.414,291.934 146.688,291.934"
   id="path2830" />
			<path
   style="fill:none;stroke:#2c5aa0;stroke-opacity:1"
   d="M 136.327,293.968 C 136.386,293.968 136.275,292.284 136.327,292.284 C 136.488,292.284 138.015,297.559 138.131,297.559 C 138.363,297.559 137.883,288.172 138.131,288.172"
   id="path2832" />
			<path
   style="fill:none;stroke:#2c5aa0;stroke-opacity:1"
   d="M 132.355,304.706 C 132.405,304.706 132.312,303.37 132.355,303.37 C 132.476,303.37 133.828,308.511 133.947,308.511 C 134.195,308.511 133.759,300.562 133.947,300.562 C 134.215,300.562 135.495,312.126 135.804,312.126 C 136.123,312.126 135.533,299.724 135.804,299.724 C 136.163,299.724 137.312,312.128 137.601,312.128 C 137.978,312.128 137.283,296.679 137.601,296.679 C 138.039,296.679 139.078,312.458 139.448,312.458 C 139.599,312.458 139.3,307.747 139.448,307.747 C 139.605,307.747 141.162,313.685 141.322,313.685 C 141.431,313.685 141.185,307.33 141.322,307.33 C 141.47,307.33 142.763,312.129 142.88,312.129 C 142.989,312.129 142.767,308.367 142.88,308.367 C 142.976,308.367 144.405,311.955 144.517,311.955 C 144.623,311.955 144.404,306.783 144.517,306.783 C 144.669,306.783 146.312,311.656 146.423,311.656 C 146.527,311.656 146.306,308.187 146.423,308.187 C 146.576,308.187 148.142,313.302 148.286,313.302 C 148.609,313.302 147.974,299.24 148.286,299.24 C 148.564,299.24 149.509,311.166 149.806,311.166 C 150.058,311.166 149.583,301.98 149.806,301.98 C 150.035,301.98 150.773,310.089 151.007,310.089 C 151.22,310.089 150.763,303.025 151.007,303.025 C 151.179,303.025 152.732,311.205 152.923,311.205 C 153.17,311.205 152.618,300.961 152.923,300.961 C 153.263,300.961 154.491,312.906 154.843,312.906 C 155.155,312.906 154.554,298.867 154.843,298.867 C 155.228,298.867 155.838,312.525 156.222,312.525 C 156.394,312.525 156.034,303.939 156.222,303.939 C 156.355,303.939 157.752,309.533 157.89,309.533 C 157.96,309.533 157.793,308.803 157.89,308.803 C 157.935,308.803 159.412,308.889 159.452,308.889 C 159.472,308.889 159.431,307.196 159.452,307.196"
   id="path2834" />
			<path
   style="fill:none;stroke:#2c5aa0;stroke-opacity:1"
   d="M 164.129,310.786 C 164.591,310.786 163.724,293.097 164.129,293.097 C 164.536,293.097 165.314,311.327 165.72,311.327 C 166.449,311.327 165.169,286.409 165.72,286.409 C 166.337,286.409 166.863,313.462 167.575,313.462 C 168.271,313.462 166.991,287.165 167.575,287.165 C 168.312,287.165 168.784,312.702 169.374,312.702 C 170.086,312.702 168.771,285.159 169.374,285.159 C 169.652,285.159 170.982,295.136 171.22,295.136 C 171.419,295.136 171.025,288.478 171.22,288.478 C 171.616,288.478 172.695,303.847 173.095,303.847 C 173.457,303.847 172.644,286.368 173.095,286.368 C 173.749,286.368 174.146,308.585 174.652,308.585 C 175.2,308.585 174.087,287.13 174.652,287.13 C 175.261,287.13 175.59,312.023 176.291,312.023 C 176.736,312.023 175.812,292.343 176.291,292.343 C 176.861,292.343 177.773,311.993 178.195,311.993 C 178.433,311.993 177.927,302.141 178.195,302.141 C 178.54,302.141 179.736,314.051 180.06,314.051 C 180.46,314.051 179.67,296.944 180.06,296.944 C 180.406,296.944 181.208,311.798 181.577,311.798 C 182.068,311.798 181.148,292.61 181.577,292.61 C 181.978,292.61 182.371,306.819 182.779,306.819 C 183.263,306.819 182.222,288.301 182.779,288.301 C 183.029,288.301 184.415,300.49 184.695,300.49 C 184.996,300.49 184.327,287.89 184.695,287.89 C 185.421,287.89 185.87,313.585 186.615,313.585 C 187.31,313.585 185.974,285.386 186.615,285.386 C 187.379,285.386 187.234,312.583 187.993,312.583 C 188.665,312.583 187.269,284.888 187.993,284.888 C 188.609,284.888 189.039,311.515 189.661,311.515 C 190.181,311.515 188.973,288.593 189.661,288.593 C 190.378,288.593 190.609,312.673 191.226,312.673 C 191.808,312.673 190.509,286.019 191.226,286.019 C 191.808,286.019 191.57,314.457 192.334,314.457 C 193.077,314.457 191.626,287.5 192.334,287.5"
   id="path2836" />
		</g>
	</g>
</g><ellipse
   style="fill:none;stroke:#bf1e55;stroke-width:7.53240013;stroke-linecap:round;stroke-linejoin:round"
   sodipodi:ry="25.541"
   sodipodi:rx="25.191"
   sodipodi:cy="172.558"
   sodipodi:cx="69.862"
   transform="matrix(0.5123,0.8588,-0.8588,0.5123,355.01283,49.494578)"
   cx="69.862"
   cy="172.558"
   rx="25.191"
   ry="25.541"
   id="ellipse2838" /><ellipse
   style="fill:none;stroke:#bf1e55;stroke-width:10;stroke-linecap:round;stroke-linejoin:round"
   sodipodi:ry="36"
   sodipodi:rx="31.499001"
   sodipodi:cy="130.10201"
   sodipodi:cx="8.0690002"
   transform="matrix(0.5123,0.8588,-0.8588,0.5123,288.41483,81.856978)"
   cx="8.0690002"
   cy="130.10201"
   rx="31.499001"
   ry="36"
   id="ellipse2840" /><ellipse
   style="fill:none;stroke:#bf1e55;stroke-width:10;stroke-linecap:round;stroke-linejoin:round"
   sodipodi:ry="36"
   sodipodi:rx="31.499001"
   sodipodi:cy="247.11"
   sodipodi:cx="80.064003"
   transform="matrix(0.5123,0.8588,-0.8588,0.5123,424.01593,77.092778)"
   cx="80.064003"
   cy="247.11"
   rx="31.499001"
   ry="36"
   id="ellipse2842" /><path
   style="fill:none;stroke:#bf1e55;stroke-width:9.59790039;stroke-linecap:round;stroke-linejoin:round"
   d="M 168.26103,219.08838 C 168.26103,210.57438 189.92603,203.68638 216.70203,203.68638"
   id="path2844" /><path
   style="fill:none;stroke:#bf1e55;stroke-width:10;stroke-linecap:round;stroke-linejoin:round"
   d="M 170.70203,221.68638 C 170.70203,241.58238 190.82903,257.68638 215.70203,257.68638"
   id="path2846" /><line
   style="fill:none;stroke:#bf1e55;stroke-width:10;stroke-linecap:round;stroke-linejoin:round"
   x1="170.70203"
   y1="194.68639"
   x2="170.70203"
   y2="221.68639"
   id="line2848" /><ellipse
   style="fill:none;stroke:#bf1e55;stroke-width:10;stroke-linecap:round;stroke-linejoin:round"
   sodipodi:ry="36"
   sodipodi:rx="31.497999"
   sodipodi:cy="276.233"
   sodipodi:cx="-17.018"
   transform="matrix(0.5123,0.8588,-0.8588,0.5123,401.67953,174.67048)"
   cx="-17.018"
   cy="276.233"
   rx="31.497999"
   ry="36"
   id="ellipse2850" /><path
   style="fill:none;stroke:#bf1e55;stroke-width:10.76609993;stroke-linecap:round;stroke-linejoin:round"
   d="M 138.77603,274.73338 C 130.75603,248.04838 144.37303,220.41238 169.22203,212.94338"
   id="path2852" />




















</svg>