<?xml version="1.0" encoding="UTF-8" standalone="no"?>
<svg
   xmlns:dc="http://purl.org/dc/elements/1.1/"
   xmlns:cc="http://creativecommons.org/ns#"
   xmlns:rdf="http://www.w3.org/1999/02/22-rdf-syntax-ns#"
   xmlns:svg="http://www.w3.org/2000/svg"
   xmlns="http://www.w3.org/2000/svg"
   xmlns:sodipodi="http://sodipodi.sourceforge.net/DTD/sodipodi-0.dtd"
   xmlns:inkscape="http://www.inkscape.org/namespaces/inkscape"
   width="308.18408"
   height="207.78149"
   id="svg2"
   sodipodi:version="0.32"
   inkscape:version="0.46"
   sodipodi:docname="logotipo-INB-compressed.svg"
   inkscape:output_extension="org.inkscape.output.svg.inkscape"
   version="1.0"
   inkscape:export-filename="/home/jmfernandez/projects/INBWorkflowLauncher/weblauncher/style/inb-logo-tiny.png"
   inkscape:export-xdpi="17.759041"
   inkscape:export-ydpi="17.759041">
  <metadata
     id="metadata67">
    <rdf:RDF>
      <cc:Work
         rdf:about="">
        <dc:format>image/svg+xml</dc:format>
        <dc:type
           rdf:resource="http://purl.org/dc/dcmitype/StillImage" />
      </cc:Work>
    </rdf:RDF>
  </metadata>
  <defs
     id="defs65">
    <inkscape:perspective
       sodipodi:type="inkscape:persp3d"
       inkscape:vp_x="0 : 173.75 : 1"
       inkscape:vp_y="0 : 1000 : 0"
       inkscape:vp_z="486.25 : 173.75 : 1"
       inkscape:persp3d-origin="243.125 : 115.83333 : 1"
       id="perspective69" />
  </defs>
  <sodipodi:namedview
     inkscape:window-height="994"
     inkscape:window-width="1272"
     inkscape:pageshadow="2"
     inkscape:pageopacity="0.0"
     guidetolerance="10.0"
     gridtolerance="10.0"
     objecttolerance="10.0"
     borderopacity="1.0"
     bordercolor="#666666"
     pagecolor="#ffffff"
     id="base"
     showgrid="false"
     inkscape:zoom="1.1269923"
     inkscape:cx="126.96847"
     inkscape:cy="173.75"
     inkscape:window-x="0"
     inkscape:window-y="0"
     inkscape:current-layer="svg2" />
  <g
     transform="translate(-8.3563194,-5.3580039)"
     style="fill:#9117ff;fill-rule:evenodd;stroke:none;stroke-width:1pt;stroke-linecap:butt;stroke-linejoin:miter;stroke-dasharray:none"
     id="g4">
    <path
       d="M 122.122,131.355 C 114.129,135.863 111.374,128.167 107.12,122.674 C 106.323,121.835 96.5185,113.737 102.228,114.805 C 108.288,116.593 132.335,119.101 122.122,131.355 z M 74.2304,161.418 C 63.2822,167.134 57.3125,156.42 60.9912,146.782 C 64.4511,139.616 67.457,136.209 66.7519,128.483 C 64.2754,117.11 62.8642,104.883 59.5517,93.7802 C 58.5986,91.7665 57.1836,91.5009 55.1299,92.1054 C 42.8359,98.1641 35.249,102.017 25.9179,111.796 C 21.3896,115.935 17.2998,120.036 11.3359,115.909 C 0,103.803 24.2256,99.7071 30.4043,97.4825 C 35.5888,95.1456 52.7959,90.7177 51.2636,82.4521 C 47.5166,74.7861 38.622,67.7314 32.1865,62.4122 C 24.6728,56.9492 3.45996,49.1191 16.5088,37.1915 C 22.2373,33.9521 27.4316,35.7764 30.6963,41.2188 C 36.3437,54.5419 42.5517,66.9589 55.4941,74.625 C 58.0703,75.4297 58.8115,75.1797 60.8408,73.3252 C 67.1162,61.1601 73.4521,49.0703 81.5371,37.9502 C 88.4863,29.7998 91.7959,23.6583 89.8965,12.7002 C 90.3965,0 108.567,5.38769 101.683,16.6416 C 94.3486,26.0634 88.5127,36.5986 82.1513,46.6816 C 78.415,53.3995 76.0996,60.958 73.3779,68.1084 C 71.4941,77.4209 85.7988,69.6679 89.1572,68.1552 C 103.344,62.5176 118.641,61.7657 132.524,55.3398 C 152.809,49.5146 151.559,82.6153 131.821,75.2587 C 124.951,71.7637 117.621,68.3486 109.846,67.6104 C 99.3877,68.0752 89.039,71.6104 79.4902,75.6201 C 64.8222,83.1153 67.0488,83.8331 78.1416,95.6797 C 80.622,97.8779 93.54,107.211 93.3613,109.832 C 92.4199,110.878 83.8711,105.484 82.6689,104.795 C 66.3467,94.7988 68.9297,97.9014 70.4326,116.593 C 70.5166,126.347 68.4336,135.449 73.5215,143.941 C 78.2802,150.518 80.5849,155.291 74.2304,161.418 z"
       id="path6" />
  </g>
  <g
     transform="translate(264.99808,74.059496)"
     style="fill:#0087ff;fill-rule:evenodd;stroke:none;stroke-width:1pt;stroke-linecap:butt;stroke-linejoin:miter;stroke-dasharray:none"
     id="g8"
     inkscape:export-filename="/home/jmfernandez/projects/INBWorkflowLauncher/weblauncher/docs/g12.png"
     inkscape:export-xdpi="35.518082"
     inkscape:export-ydpi="35.518082">
    <path
       d="M 0,0 C 0,0 25.228,0 25.228,0 C 30.175,0 33.972,1.126 36.597,3.3672 C 39.221,5.6084 40.539,8.4245 40.539,11.8155 C 40.539,14.6435 39.623,17.0455 37.791,19.0225 C 35.96,21.0005 33.201,22.5635 29.516,23.7015 C 34.072,24.6895 37.489,26.2525 39.768,28.3675 C 42.046,30.4945 43.186,33.1715 43.186,36.4025 C 43.186,38.8735 42.537,41.0575 41.242,42.9645 C 39.946,44.8735 37.78,46.4945 34.765,47.8155 C 31.738,49.1375 28.31,49.8045 24.48,49.8045 C 24.48,49.8045 0,49.8045 0,49.8045 C 0,49.8045 0,47.2755 0,47.2755 C 0,47.2755 3.997,47.2755 3.997,47.2755 C 5.192,47.2755 6.074,47.0805 6.622,46.6775 C 7.181,46.2635 7.46,45.8045 7.46,45.2875 C 7.46,45.2875 7.46,5.3906 7.46,5.3906 C 7.46,4.4473 7.191,3.7354 6.645,3.252 C 6.097,2.7695 5.304,2.5283 4.254,2.5283 C 4.254,2.5283 0,2.5283 0,2.5283 C 0,2.5283 0,0 0,0 z M 14.462,22.8965 C 14.462,22.8965 23.619,22.8965 23.619,22.8965 C 26.434,22.8965 28.679,22.0455 30.342,20.3445 C 32.018,18.6315 32.855,15.8385 32.855,11.9535 C 32.855,9.5505 32.453,7.6778 31.66,6.333 C 30.856,4.9883 29.706,4 28.187,3.3789 C 26.668,2.7695 24.055,2.46 20.325,2.46 C 17.678,2.46 16.047,2.6553 15.411,3.0459 C 14.774,3.4365 14.462,4.126 14.462,5.1143 C 14.462,5.1143 14.462,22.8965 14.462,22.8965 z M 14.462,25.3905 C 14.462,25.3905 14.462,44.5855 14.462,44.5855 C 14.462,45.4825 14.719,46.1615 15.232,46.6095 C 15.746,47.0575 16.662,47.2755 18.002,47.2755 C 18.002,47.2755 23.854,47.2755 23.854,47.2755 C 27.74,47.2755 30.599,46.4025 32.453,44.6315 C 34.307,42.8735 35.233,40.1255 35.233,36.4025 C 35.233,32.9885 34.284,30.2975 32.363,28.3335 C 30.442,26.3675 27.785,25.3905 24.412,25.3905 C 24.412,25.3905 14.462,25.3905 14.462,25.3905 z"
       id="path10" />
  </g>
  <g
     transform="translate(151.38208,73.954496)"
     style="fill:#0087ff;fill-rule:evenodd;stroke:none;stroke-width:1pt;stroke-linecap:butt;stroke-linejoin:miter;stroke-dasharray:none"
     id="g12"
     inkscape:export-filename="/home/jmfernandez/projects/INBWorkflowLauncher/weblauncher/docs/g12.png"
     inkscape:export-xdpi="35.518082"
     inkscape:export-ydpi="35.518082">
    <path
       d="M 0.087,1.9395 C 0.087,2.3956 0.563,2.6241 1.515,2.6241 C 4.546,2.5098 6.408,2.795 7.115,3.4659 C 7.794,4.2061 8.111,5.9034 8.054,8.527 C 8.054,8.527 8.054,36.647 8.054,36.647 C 8.111,41.124 7.851,43.919 7.274,45.073 C 6.625,46.214 4.922,46.742 2.165,46.656 C 2.165,46.656 1.111,46.656 1.111,46.656 C 0.376,46.6 0,46.814 0,47.284 C 0,47.284 0,48.739 0,48.739 C 0,49.181 0.159,49.408 0.491,49.408 C 0.491,49.408 22.443,49.323 22.443,49.323 C 22.876,49.38 23.093,49.095 23.093,48.453 C 23.093,48.453 23.093,47.284 23.093,47.284 C 23.15,46.756 22.674,46.542 21.664,46.656 C 21.664,46.656 20.51,46.656 20.51,46.656 C 18.056,46.8 16.482,46.457 15.804,45.658 C 15.197,44.789 14.924,42.393 14.981,38.457 C 14.981,38.457 14.981,12.12 14.981,12.12 C 14.924,7.6573 15.285,4.92 16.05,3.9219 C 16.843,2.9942 18.892,2.5665 22.198,2.6241 C 22.848,2.6807 23.18,2.5098 23.18,2.1387 C 23.18,2.1387 23.18,0.7276 23.18,0.7276 C 23.18,0.3145 22.963,0.1143 22.529,0.1143 C 22.529,0.1143 0.78,0.1143 0.78,0.1143 C 0.317,0.1143 0.087,0.2852 0.087,0.6416 C 0.087,0.6416 0.087,1.9395 0.087,1.9395 z M 97.462,0.7276 C 97.462,0.3145 97.26,0.1143 96.885,0.1143 C 96.885,0.1143 79.045,0.1143 79.045,0.1143 C 78.481,0.1143 78.193,0.3145 78.193,0.7276 C 78.193,0.7276 78.193,1.9395 78.193,1.9395 C 78.193,2.2959 78.295,2.4961 78.525,2.5518 C 78.713,2.6524 79.189,2.71 79.954,2.71 C 81.484,2.71 82.697,2.7383 83.577,2.795 C 84.414,2.9092 85.035,3.2081 85.425,3.7071 C 86.102,4.5782 86.42,7.0157 86.362,11.037 C 86.362,11.037 86.362,36.989 86.362,36.989 C 84.342,34.422 82.321,31.841 80.301,29.218 C 80.301,29.218 63.126,6.2168 63.126,6.2168 C 61.596,4.2061 60.139,2.167 58.752,0.1143 C 58.752,0.1143 43.67,0.1143 43.67,0.1143 C 43.252,0 43.079,0.6133 43.137,1.9395 C 43.137,2.2959 43.237,2.4961 43.469,2.5518 C 43.699,2.6524 44.205,2.71 44.97,2.71 C 46.499,2.71 47.64,2.7383 48.404,2.795 C 49.242,2.9659 49.805,3.3086 50.079,3.836 C 50.598,4.7344 50.829,7.1583 50.771,11.122 C 50.771,11.122 50.771,39.669 50.771,39.669 C 50.829,42.792 50.469,44.76 49.675,45.573 C 48.822,46.386 47.048,46.742 44.32,46.656 C 43.742,46.656 43.382,46.756 43.223,46.956 C 43.107,47.17 43.049,47.74 43.049,48.652 C 43.049,49.152 43.28,49.408 43.742,49.408 C 43.742,49.408 62.057,49.323 62.057,49.323 C 62.332,49.266 62.491,49.109 62.549,48.823 C 62.549,48.823 62.549,47.526 62.549,47.526 C 62.606,46.898 61.956,46.6 60.614,46.656 C 59.215,46.656 58.132,46.542 57.339,46.328 C 56.515,46.158 55.895,45.759 55.491,45.145 C 54.827,43.947 54.523,40.924 54.582,36.076 C 54.582,36.076 54.582,7.629 54.582,7.629 C 56.472,9.554 58.334,11.764 60.196,14.273 C 60.196,14.273 81.354,42.379 81.354,42.379 C 81.354,42.379 86.738,49.907 86.738,49.907 C 86.738,49.907 89.768,49.907 89.768,49.907 C 90.1,49.907 90.259,49.622 90.259,49.065 C 90.259,49.065 90.259,11.122 90.259,11.122 C 90.201,7.045 90.462,4.5782 91.039,3.7071 C 91.573,2.9805 93.132,2.6524 95.7,2.71 C 96.87,2.7666 97.462,2.5801 97.462,2.1387 C 97.462,2.1387 97.462,0.7276 97.462,0.7276 z"
       id="path14" />
  </g>
  <g
     transform="translate(63.321041,170.7205)"
     style="fill:#0087ff;fill-rule:evenodd;stroke:none;stroke-width:1pt;stroke-linecap:butt;stroke-linejoin:miter;stroke-dasharray:none"
     id="g16">
    <path
       d="M 0.019,0.672 C 0.019,0.775 0.126,0.827 0.339,0.827 C 1.017,0.8 1.434,0.866 1.592,1.017 C 1.745,1.185 1.816,1.57 1.803,2.165 C 1.803,2.165 1.803,8.536 1.803,8.536 C 1.816,9.55 1.757,10.184 1.628,10.446 C 1.483,10.704 1.102,10.823 0.485,10.804 C 0.485,10.804 0.249,10.804 0.249,10.804 C 0.084,10.791 0,10.84 0,10.946 C 0,10.946 0,11.275 0,11.275 C 0,11.376 0.036,11.427 0.11,11.427 C 0.11,11.427 5.024,11.408 5.024,11.408 C 5.121,11.422 5.169,11.356 5.169,11.212 C 5.169,11.212 5.169,10.946 5.169,10.946 C 5.182,10.827 5.076,10.778 4.849,10.804 C 4.849,10.804 4.591,10.804 4.591,10.804 C 4.042,10.837 3.69,10.758 3.538,10.578 C 3.402,10.381 3.341,9.838 3.354,8.946 C 3.354,8.946 3.354,2.978 3.354,2.978 C 3.341,1.967 3.421,1.347 3.592,1.121 C 3.771,0.911 4.229,0.813 4.969,0.827 C 5.115,0.84 5.189,0.8 5.189,0.717 C 5.189,0.717 5.189,0.397 5.189,0.397 C 5.189,0.303 5.14,0.258 5.043,0.258 C 5.043,0.258 0.174,0.258 0.174,0.258 C 0.071,0.258 0.019,0.297 0.019,0.378 C 0.019,0.378 0.019,0.672 0.019,0.672 z M 21.426,0.397 C 21.426,0.303 21.381,0.258 21.297,0.258 C 21.297,0.258 17.303,0.258 17.303,0.258 C 17.177,0.258 17.113,0.303 17.113,0.397 C 17.113,0.397 17.113,0.672 17.113,0.672 C 17.113,0.753 17.135,0.798 17.187,0.81 C 17.229,0.833 17.335,0.845 17.506,0.845 C 17.85,0.845 18.121,0.852 18.318,0.866 C 18.505,0.891 18.644,0.959 18.731,1.073 C 18.883,1.269 18.955,1.822 18.941,2.733 C 18.941,2.733 18.941,8.614 18.941,8.614 C 18.489,8.032 18.037,7.447 17.584,6.852 C 17.584,6.852 13.74,1.641 13.74,1.641 C 13.397,1.185 13.071,0.723 12.76,0.258 C 12.76,0.258 9.384,0.258 9.384,0.258 C 9.291,0.232 9.251,0.371 9.264,0.672 C 9.264,0.753 9.287,0.798 9.339,0.81 C 9.39,0.833 9.503,0.845 9.675,0.845 C 10.017,0.845 10.272,0.852 10.444,0.866 C 10.631,0.904 10.757,0.982 10.819,1.101 C 10.935,1.304 10.987,1.854 10.974,2.753 C 10.974,2.753 10.974,9.221 10.974,9.221 C 10.987,9.928 10.906,10.375 10.728,10.558 C 10.538,10.743 10.14,10.823 9.53,10.804 C 9.4,10.804 9.32,10.827 9.285,10.872 C 9.258,10.921 9.245,11.049 9.245,11.257 C 9.245,11.37 9.297,11.427 9.4,11.427 C 9.4,11.427 13.501,11.408 13.501,11.408 C 13.562,11.395 13.597,11.36 13.61,11.296 C 13.61,11.296 13.61,11.001 13.61,11.001 C 13.624,10.859 13.478,10.791 13.177,10.804 C 12.864,10.804 12.622,10.778 12.444,10.73 C 12.259,10.691 12.121,10.6 12.03,10.462 C 11.882,10.19 11.814,9.505 11.827,8.407 C 11.827,8.407 11.827,1.961 11.827,1.961 C 12.25,2.397 12.667,2.897 13.084,3.466 C 13.084,3.466 17.82,9.835 17.82,9.835 C 17.82,9.835 19.025,11.541 19.025,11.541 C 19.025,11.541 19.704,11.541 19.704,11.541 C 19.778,11.541 19.814,11.476 19.814,11.35 C 19.814,11.35 19.814,2.753 19.814,2.753 C 19.801,1.828 19.859,1.269 19.989,1.073 C 20.108,0.908 20.457,0.833 21.032,0.845 C 21.293,0.859 21.426,0.817 21.426,0.717 C 21.426,0.717 21.426,0.397 21.426,0.397 z M 32.145,2.694 C 32.158,2.94 32.212,3.049 32.306,3.023 C 32.306,3.023 32.548,3.023 32.548,3.023 C 32.665,3.023 32.726,2.988 32.726,2.911 C 32.726,2.911 32.726,0.439 32.726,0.439 C 31.973,0.18 31.137,0.045 30.216,0.032 C 29.024,0.045 28.044,0.348 27.282,0.94 C 26.506,1.548 26.113,2.316 26.099,3.25 C 26.099,3.715 26.2,4.123 26.403,4.471 C 26.604,4.817 26.856,5.121 27.156,5.38 C 27.469,5.625 27.792,5.835 28.128,6.003 C 28.471,6.194 28.788,6.355 29.076,6.488 C 30.026,6.898 30.701,7.299 31.104,7.689 C 31.489,8.074 31.683,8.507 31.683,8.985 C 31.669,9.579 31.447,10.057 31.014,10.423 C 30.572,10.81 29.993,11.001 29.279,11.001 C 28.548,10.988 27.854,10.762 27.195,10.319 C 26.943,10.168 26.788,9.728 26.726,9.001 C 26.678,8.536 26.6,8.297 26.497,8.284 C 26.497,8.284 26.158,8.284 26.158,8.284 C 26.096,8.297 26.064,8.348 26.064,8.442 C 26.064,8.442 26.064,11.056 26.064,11.056 C 27.153,11.46 28.184,11.657 29.163,11.644 C 30.413,11.625 31.415,11.318 32.167,10.726 C 32.93,10.145 33.318,9.376 33.331,8.423 C 33.331,7.748 33.105,7.159 32.652,6.652 C 32.174,6.161 31.392,5.67 30.306,5.185 C 29.376,4.743 28.72,4.336 28.335,3.965 C 27.932,3.573 27.734,3.15 27.748,2.694 C 27.748,2.074 27.967,1.58 28.41,1.208 C 28.827,0.827 29.35,0.632 29.973,0.62 C 30.681,0.62 31.195,0.743 31.521,0.988 C 31.834,1.272 32.029,1.76 32.099,2.449 C 32.099,2.449 32.145,2.694 32.145,2.694 z M 42.305,8.264 C 42.318,9.376 42.244,10.087 42.085,10.397 C 41.894,10.701 41.471,10.837 40.819,10.804 C 40.622,10.804 40.499,10.813 40.45,10.834 C 40.382,10.846 40.35,10.888 40.35,10.965 C 40.35,10.965 40.35,11.275 40.35,11.275 C 40.337,11.376 40.382,11.427 40.486,11.427 C 40.486,11.427 45.639,11.408 45.639,11.408 C 45.7,11.408 45.736,11.376 45.749,11.314 C 45.749,11.314 45.749,10.908 45.749,10.908 C 45.775,10.827 45.613,10.785 45.264,10.785 C 44.625,10.798 44.237,10.723 44.101,10.558 C 44.03,10.449 43.972,10.155 43.93,9.667 C 43.878,9.173 43.856,8.519 43.856,7.706 C 43.856,7.706 43.856,1.146 43.856,1.146 C 43.856,1.146 46.337,1.146 46.337,1.146 C 46.832,1.133 47.119,1.411 47.2,1.98 C 47.2,1.98 47.383,3.166 47.383,3.166 C 47.383,3.279 47.442,3.337 47.555,3.337 C 47.555,3.337 47.869,3.337 47.869,3.337 C 47.936,3.347 47.975,3.311 47.988,3.221 C 47.988,3.221 47.988,0.494 47.988,0.494 C 47.988,0.323 47.923,0.245 47.794,0.258 C 47.794,0.258 38.359,0.258 38.359,0.258 C 38.224,0.245 38.163,0.323 38.175,0.491 C 38.175,0.491 38.175,3.221 38.175,3.221 C 38.175,3.311 38.21,3.347 38.286,3.337 C 38.286,3.337 38.605,3.337 38.605,3.337 C 38.715,3.337 38.773,3.279 38.773,3.166 C 38.773,3.166 38.963,1.98 38.963,1.98 C 39.025,1.65 39.119,1.424 39.238,1.299 C 39.368,1.198 39.565,1.146 39.826,1.146 C 39.826,1.146 42.305,1.146 42.305,1.146 C 42.305,1.146 42.305,8.264 42.305,8.264 z M 52.41,0.672 C 52.41,0.775 52.516,0.827 52.729,0.827 C 53.408,0.8 53.825,0.866 53.983,1.017 C 54.134,1.185 54.206,1.57 54.193,2.165 C 54.193,2.165 54.193,8.536 54.193,8.536 C 54.206,9.55 54.148,10.184 54.019,10.446 C 53.873,10.704 53.492,10.823 52.875,10.804 C 52.875,10.804 52.639,10.804 52.639,10.804 C 52.474,10.791 52.39,10.84 52.39,10.946 C 52.39,10.946 52.39,11.275 52.39,11.275 C 52.39,11.376 52.425,11.427 52.501,11.427 C 52.501,11.427 57.414,11.408 57.414,11.408 C 57.511,11.422 57.56,11.356 57.56,11.212 C 57.56,11.212 57.56,10.946 57.56,10.946 C 57.573,10.827 57.466,10.778 57.24,10.804 C 57.24,10.804 56.981,10.804 56.981,10.804 C 56.432,10.837 56.08,10.758 55.928,10.578 C 55.792,10.381 55.731,9.838 55.744,8.946 C 55.744,8.946 55.744,2.978 55.744,2.978 C 55.731,1.967 55.812,1.347 55.983,1.121 C 56.161,0.911 56.62,0.813 57.359,0.827 C 57.504,0.84 57.579,0.8 57.579,0.717 C 57.579,0.717 57.579,0.397 57.579,0.397 C 57.579,0.303 57.531,0.258 57.434,0.258 C 57.434,0.258 52.564,0.258 52.564,0.258 C 52.461,0.258 52.41,0.297 52.41,0.378 C 52.41,0.378 52.41,0.672 52.41,0.672 z M 65.978,8.264 C 65.991,9.376 65.917,10.087 65.758,10.397 C 65.568,10.701 65.144,10.837 64.492,10.804 C 64.294,10.804 64.171,10.813 64.124,10.834 C 64.055,10.846 64.023,10.888 64.023,10.965 C 64.023,10.965 64.023,11.275 64.023,11.275 C 64.01,11.376 64.055,11.427 64.159,11.427 C 64.159,11.427 69.312,11.408 69.312,11.408 C 69.374,11.408 69.41,11.376 69.422,11.314 C 69.422,11.314 69.422,10.908 69.422,10.908 C 69.448,10.827 69.287,10.785 68.937,10.785 C 68.298,10.798 67.91,10.723 67.774,10.558 C 67.704,10.449 67.645,10.155 67.603,9.667 C 67.551,9.173 67.529,8.519 67.529,7.706 C 67.529,7.706 67.529,1.146 67.529,1.146 C 67.529,1.146 70.01,1.146 70.01,1.146 C 70.504,1.133 70.792,1.411 70.873,1.98 C 70.873,1.98 71.057,3.166 71.057,3.166 C 71.057,3.279 71.115,3.337 71.228,3.337 C 71.228,3.337 71.542,3.337 71.542,3.337 C 71.61,3.347 71.648,3.311 71.662,3.221 C 71.662,3.221 71.662,0.494 71.662,0.494 C 71.662,0.323 71.596,0.245 71.467,0.258 C 71.467,0.258 62.033,0.258 62.033,0.258 C 61.897,0.245 61.835,0.323 61.849,0.491 C 61.849,0.491 61.849,3.221 61.849,3.221 C 61.849,3.311 61.884,3.347 61.959,3.337 C 61.959,3.337 62.278,3.337 62.278,3.337 C 62.388,3.337 62.447,3.279 62.447,3.166 C 62.447,3.166 62.637,1.98 62.637,1.98 C 62.699,1.65 62.792,1.424 62.912,1.299 C 63.041,1.198 63.238,1.146 63.5,1.146 C 63.5,1.146 65.978,1.146 65.978,1.146 C 65.978,1.146 65.978,8.264 65.978,8.264 z M 85.74,2.827 C 85.727,1.919 85.802,1.347 85.96,1.121 C 86.115,0.901 86.455,0.807 86.985,0.845 C 87.12,0.833 87.213,0.81 87.268,0.772 C 87.294,0.758 87.307,0.714 87.307,0.636 C 87.307,0.636 87.307,0.342 87.307,0.342 C 87.307,0.287 87.255,0.258 87.152,0.258 C 87.152,0.258 83.262,0.258 83.262,0.258 C 83.104,0.258 83.03,0.303 83.042,0.397 C 83.042,0.397 83.042,0.672 83.042,0.672 C 83.03,0.8 83.168,0.859 83.457,0.845 C 83.792,0.845 84.06,0.866 84.264,0.904 C 84.451,0.953 84.59,1.069 84.674,1.253 C 84.816,1.576 84.88,2.368 84.868,3.625 C 84.868,3.625 84.868,6.403 84.868,6.403 C 84.868,7.334 84.81,8.064 84.694,8.594 C 84.571,9.136 84.351,9.57 84.035,9.893 C 83.482,10.487 82.813,10.785 82.025,10.785 C 81.25,10.772 80.603,10.522 80.088,10.035 C 79.779,9.718 79.559,9.301 79.439,8.785 C 79.311,8.271 79.246,7.528 79.246,6.555 C 79.246,6.555 79.246,3.198 79.246,3.198 C 79.233,2.084 79.317,1.398 79.495,1.14 C 79.653,0.894 80.07,0.795 80.749,0.845 C 80.877,0.833 80.961,0.804 80.997,0.753 C 81.01,0.698 81.016,0.575 81.016,0.378 C 81.003,0.309 80.959,0.271 80.877,0.258 C 80.877,0.258 76.238,0.258 76.238,0.258 C 76.134,0.258 76.083,0.287 76.083,0.342 C 76.083,0.342 76.083,0.672 76.083,0.672 C 76.07,0.8 76.218,0.859 76.532,0.845 C 77.055,0.833 77.388,0.908 77.53,1.073 C 77.653,1.257 77.709,1.718 77.695,2.459 C 77.695,2.459 77.695,7.683 77.695,7.683 C 77.721,8.018 77.779,8.407 77.87,8.849 C 77.954,9.286 78.122,9.718 78.374,10.148 C 78.635,10.558 79.04,10.901 79.588,11.172 C 80.128,11.457 80.858,11.605 81.786,11.618 C 82.994,11.605 83.973,11.22 84.726,10.462 C 85.401,9.76 85.74,8.652 85.74,7.133 C 85.74,7.133 85.74,2.827 85.74,2.827 z M 95.917,8.264 C 95.929,9.376 95.855,10.087 95.696,10.397 C 95.505,10.701 95.083,10.837 94.43,10.804 C 94.233,10.804 94.11,10.813 94.062,10.834 C 93.994,10.846 93.961,10.888 93.961,10.965 C 93.961,10.965 93.961,11.275 93.961,11.275 C 93.949,11.376 93.994,11.427 94.097,11.427 C 94.097,11.427 99.251,11.408 99.251,11.408 C 99.312,11.408 99.348,11.376 99.361,11.314 C 99.361,11.314 99.361,10.908 99.361,10.908 C 99.386,10.827 99.225,10.785 98.876,10.785 C 98.236,10.798 97.848,10.723 97.712,10.558 C 97.641,10.449 97.584,10.155 97.542,9.667 C 97.49,9.173 97.467,8.519 97.467,7.706 C 97.467,7.706 97.467,1.146 97.467,1.146 C 97.467,1.146 99.949,1.146 99.949,1.146 C 100.443,1.133 100.73,1.411 100.811,1.98 C 100.811,1.98 100.996,3.166 100.996,3.166 C 100.996,3.279 101.053,3.337 101.167,3.337 C 101.167,3.337 101.48,3.337 101.48,3.337 C 101.547,3.347 101.586,3.311 101.599,3.221 C 101.599,3.221 101.599,0.494 101.599,0.494 C 101.599,0.323 101.535,0.245 101.406,0.258 C 101.406,0.258 91.971,0.258 91.971,0.258 C 91.835,0.245 91.774,0.323 91.787,0.491 C 91.787,0.491 91.787,3.221 91.787,3.221 C 91.787,3.311 91.823,3.347 91.897,3.337 C 91.897,3.337 92.216,3.337 92.216,3.337 C 92.327,3.337 92.384,3.279 92.384,3.166 C 92.384,3.166 92.576,1.98 92.576,1.98 C 92.636,1.65 92.73,1.424 92.85,1.299 C 92.979,1.198 93.176,1.146 93.438,1.146 C 93.438,1.146 95.917,1.146 95.917,1.146 C 95.917,1.146 95.917,8.264 95.917,8.264 z M 110.952,0.655 C 111.969,0.669 112.777,1.146 113.378,2.093 C 113.979,3.043 114.283,4.309 114.295,5.886 C 114.283,7.447 113.982,8.691 113.394,9.612 C 112.784,10.526 111.95,10.988 110.897,11.001 C 109.866,10.988 109.04,10.509 108.406,9.563 C 107.756,8.623 107.433,7.379 107.433,5.828 C 107.433,4.203 107.75,2.936 108.39,2.035 C 109.006,1.127 109.863,0.669 110.952,0.655 z M 111.081,0.032 C 109.43,0.045 108.102,0.607 107.1,1.715 C 106.073,2.814 105.552,4.267 105.54,6.08 C 105.552,7.731 106.041,9.063 107.006,10.074 C 107.944,11.101 109.174,11.625 110.703,11.644 C 112.332,11.612 113.646,11.052 114.648,9.97 C 115.663,8.897 116.176,7.496 116.189,5.767 C 116.176,3.993 115.714,2.6 114.803,1.583 C 113.885,0.561 112.644,0.045 111.081,0.032 z M 137.68,0.397 C 137.68,0.303 137.634,0.258 137.551,0.258 C 137.551,0.258 133.557,0.258 133.557,0.258 C 133.431,0.258 133.367,0.303 133.367,0.397 C 133.367,0.397 133.367,0.672 133.367,0.672 C 133.367,0.753 133.389,0.798 133.441,0.81 C 133.483,0.833 133.589,0.845 133.76,0.845 C 134.103,0.845 134.375,0.852 134.572,0.866 C 134.759,0.891 134.898,0.959 134.985,1.073 C 135.137,1.269 135.209,1.822 135.195,2.733 C 135.195,2.733 135.195,8.614 135.195,8.614 C 134.743,8.032 134.291,7.447 133.838,6.852 C 133.838,6.852 129.994,1.641 129.994,1.641 C 129.651,1.185 129.325,0.723 129.014,0.258 C 129.014,0.258 125.638,0.258 125.638,0.258 C 125.544,0.232 125.505,0.371 125.518,0.672 C 125.518,0.753 125.541,0.798 125.592,0.81 C 125.644,0.833 125.757,0.845 125.929,0.845 C 126.271,0.845 126.526,0.852 126.698,0.866 C 126.885,0.904 127.011,0.982 127.073,1.101 C 127.188,1.304 127.241,1.854 127.228,2.753 C 127.228,2.753 127.228,9.221 127.228,9.221 C 127.241,9.928 127.16,10.375 126.982,10.558 C 126.792,10.743 126.394,10.823 125.783,10.804 C 125.654,10.804 125.574,10.827 125.538,10.872 C 125.512,10.921 125.499,11.049 125.499,11.257 C 125.499,11.37 125.551,11.427 125.654,11.427 C 125.654,11.427 129.754,11.408 129.754,11.408 C 129.816,11.395 129.851,11.36 129.864,11.296 C 129.864,11.296 129.864,11.001 129.864,11.001 C 129.876,10.859 129.732,10.791 129.431,10.804 C 129.118,10.804 128.876,10.778 128.698,10.73 C 128.513,10.691 128.375,10.6 128.284,10.462 C 128.135,10.19 128.068,9.505 128.081,8.407 C 128.081,8.407 128.081,1.961 128.081,1.961 C 128.503,2.397 128.92,2.897 129.337,3.466 C 129.337,3.466 134.074,9.835 134.074,9.835 C 134.074,9.835 135.279,11.541 135.279,11.541 C 135.279,11.541 135.958,11.541 135.958,11.541 C 136.032,11.541 136.068,11.476 136.068,11.35 C 136.068,11.35 136.068,2.753 136.068,2.753 C 136.054,1.828 136.113,1.269 136.242,1.073 C 136.362,0.908 136.71,0.833 137.286,0.845 C 137.547,0.859 137.68,0.817 137.68,0.717 C 137.68,0.717 137.68,0.397 137.68,0.397 z M 148.954,7.14 C 148.954,7.14 144.79,7.14 144.79,7.14 C 144.79,7.14 146.909,2.135 146.909,2.135 C 146.909,2.135 148.954,7.14 148.954,7.14 z M 142.819,9.244 C 142.654,9.628 142.505,9.922 142.379,10.132 C 142.256,10.339 142.14,10.494 142.031,10.594 C 141.927,10.684 141.817,10.733 141.708,10.746 C 141.59,10.772 141.468,10.785 141.333,10.785 C 141.203,10.785 141.145,10.84 141.158,10.946 C 141.158,10.946 141.158,11.237 141.158,11.237 C 141.158,11.363 141.203,11.427 141.296,11.427 C 141.296,11.427 144.864,11.408 144.864,11.408 C 144.925,11.408 144.96,11.36 144.974,11.257 C 144.974,11.257 144.974,10.985 144.974,10.985 C 144.974,10.852 144.918,10.785 144.809,10.785 C 144.809,10.785 144.395,10.785 144.395,10.785 C 143.894,10.785 143.642,10.594 143.642,10.207 C 143.642,10.061 143.674,9.916 143.736,9.763 C 143.736,9.763 144.486,7.841 144.486,7.841 C 144.486,7.841 149.239,7.841 149.239,7.841 C 149.239,7.841 149.898,9.508 149.898,9.508 C 150.007,9.79 150.062,10.032 150.062,10.226 C 150.062,10.597 149.794,10.785 149.254,10.785 C 149.254,10.785 148.806,10.785 148.806,10.785 C 148.715,10.798 148.669,10.852 148.669,10.946 C 148.669,10.946 148.651,11.237 148.651,11.237 C 148.664,11.363 148.715,11.427 148.806,11.427 C 148.806,11.427 153.051,11.408 153.051,11.408 C 153.187,11.422 153.255,11.363 153.255,11.237 C 153.255,11.237 153.255,10.985 153.255,10.985 C 153.255,10.908 153.235,10.849 153.2,10.804 C 153.152,10.791 153.039,10.785 152.861,10.785 C 152.609,10.785 152.389,10.642 152.202,10.358 C 152.066,10.112 151.81,9.57 151.439,8.73 C 151.071,7.906 150.657,6.965 150.192,5.919 C 149.219,3.66 148.538,2.067 148.146,1.14 C 148.146,1.14 147.698,0.032 147.698,0.032 C 147.698,0.032 146.98,0.032 146.98,0.032 C 146.98,0.032 142.819,9.244 142.819,9.244 z M 165.331,3.818 C 165.405,3.831 165.447,3.793 165.459,3.703 C 165.479,3.615 165.472,3.421 165.44,3.118 C 165.44,3.118 165.331,0.59 165.331,0.59 C 164.351,0.193 163.427,0 162.552,0.012 C 160.723,0.025 159.272,0.568 158.197,1.641 C 157.108,2.714 156.558,4.174 156.545,6.022 C 156.558,7.676 157.027,9.014 157.948,10.035 C 158.843,11.076 160.012,11.612 161.459,11.644 C 162.177,11.625 162.785,11.515 163.286,11.314 C 163.799,11.108 164.212,10.876 164.523,10.617 C 164.849,10.332 165.088,10.084 165.241,9.864 C 165.373,9.632 165.44,9.482 165.44,9.418 C 165.44,9.37 165.417,9.331 165.37,9.304 C 165.37,9.304 165.066,9.089 165.066,9.089 C 165.004,9.027 164.894,9.104 164.736,9.327 C 164.044,10.164 163.168,10.59 162.106,10.603 C 161.03,10.59 160.145,10.1 159.457,9.127 C 158.74,8.186 158.377,6.978 158.365,5.502 C 158.377,4.07 158.717,2.914 159.382,2.038 C 160.042,1.16 160.904,0.714 161.973,0.694 C 162.684,0.714 163.308,0.972 163.844,1.469 C 164.371,1.987 164.698,2.639 164.827,3.431 C 164.852,3.689 164.908,3.818 164.992,3.818 C 164.992,3.818 165.331,3.818 165.331,3.818 z M 169.878,0.672 C 169.878,0.775 169.985,0.827 170.199,0.827 C 170.876,0.8 171.293,0.866 171.452,1.017 C 171.603,1.185 171.674,1.57 171.662,2.165 C 171.662,2.165 171.662,8.536 171.662,8.536 C 171.674,9.55 171.617,10.184 171.488,10.446 C 171.342,10.704 170.96,10.823 170.343,10.804 C 170.343,10.804 170.108,10.804 170.108,10.804 C 169.943,10.791 169.859,10.84 169.859,10.946 C 169.859,10.946 169.859,11.275 169.859,11.275 C 169.859,11.376 169.894,11.427 169.968,11.427 C 169.968,11.427 174.883,11.408 174.883,11.408 C 174.98,11.422 175.029,11.356 175.029,11.212 C 175.029,11.212 175.029,10.946 175.029,10.946 C 175.042,10.827 174.935,10.778 174.709,10.804 C 174.709,10.804 174.451,10.804 174.451,10.804 C 173.901,10.837 173.549,10.758 173.397,10.578 C 173.261,10.381 173.2,9.838 173.212,8.946 C 173.212,8.946 173.212,2.978 173.212,2.978 C 173.2,1.967 173.281,1.347 173.452,1.121 C 173.629,0.911 174.088,0.813 174.828,0.827 C 174.973,0.84 175.047,0.8 175.047,0.717 C 175.047,0.717 175.047,0.397 175.047,0.397 C 175.047,0.303 175,0.258 174.903,0.258 C 174.903,0.258 170.034,0.258 170.034,0.258 C 169.93,0.258 169.878,0.297 169.878,0.378 C 169.878,0.378 169.878,0.672 169.878,0.672 z M 184.794,0.655 C 185.812,0.669 186.62,1.146 187.22,2.093 C 187.822,3.043 188.126,4.309 188.138,5.886 C 188.126,7.447 187.825,8.691 187.237,9.612 C 186.626,10.526 185.792,10.988 184.739,11.001 C 183.709,10.988 182.881,10.509 182.249,9.563 C 181.599,8.623 181.275,7.379 181.275,5.828 C 181.275,4.203 181.592,2.936 182.232,2.035 C 182.849,1.127 183.706,0.669 184.794,0.655 z M 184.923,0.032 C 183.273,0.045 181.944,0.607 180.943,1.715 C 179.916,2.814 179.395,4.267 179.382,6.08 C 179.395,7.731 179.883,9.063 180.849,10.074 C 181.787,11.101 183.017,11.625 184.545,11.644 C 186.174,11.612 187.489,11.052 188.491,9.97 C 189.505,8.897 190.019,7.496 190.032,5.767 C 190.019,3.993 189.557,2.6 188.645,1.583 C 187.728,0.561 186.487,0.045 184.923,0.032 z M 206.76,0.397 C 206.76,0.303 206.715,0.258 206.63,0.258 C 206.63,0.258 202.637,0.258 202.637,0.258 C 202.511,0.258 202.447,0.303 202.447,0.397 C 202.447,0.397 202.447,0.672 202.447,0.672 C 202.447,0.753 202.469,0.798 202.521,0.81 C 202.563,0.833 202.669,0.845 202.84,0.845 C 203.183,0.845 203.455,0.852 203.652,0.866 C 203.839,0.891 203.978,0.959 204.065,1.073 C 204.217,1.269 204.289,1.822 204.276,2.733 C 204.276,2.733 204.276,8.614 204.276,8.614 C 203.823,8.032 203.371,7.447 202.918,6.852 C 202.918,6.852 199.074,1.641 199.074,1.641 C 198.731,1.185 198.405,0.723 198.094,0.258 C 198.094,0.258 194.718,0.258 194.718,0.258 C 194.625,0.232 194.585,0.371 194.598,0.672 C 194.598,0.753 194.621,0.798 194.673,0.81 C 194.724,0.833 194.837,0.845 195.009,0.845 C 195.351,0.845 195.606,0.852 195.778,0.866 C 195.965,0.904 196.091,0.982 196.153,1.101 C 196.269,1.304 196.321,1.854 196.308,2.753 C 196.308,2.753 196.308,9.221 196.308,9.221 C 196.321,9.928 196.24,10.375 196.062,10.558 C 195.872,10.743 195.474,10.823 194.864,10.804 C 194.734,10.804 194.654,10.827 194.618,10.872 C 194.592,10.921 194.579,11.049 194.579,11.257 C 194.579,11.37 194.631,11.427 194.734,11.427 C 194.734,11.427 198.834,11.408 198.834,11.408 C 198.896,11.395 198.931,11.36 198.944,11.296 C 198.944,11.296 198.944,11.001 198.944,11.001 C 198.958,10.859 198.812,10.791 198.511,10.804 C 198.198,10.804 197.956,10.778 197.778,10.73 C 197.593,10.691 197.455,10.6 197.364,10.462 C 197.215,10.19 197.148,9.505 197.161,8.407 C 197.161,8.407 197.161,1.961 197.161,1.961 C 197.584,2.397 198.001,2.897 198.417,3.466 C 198.417,3.466 203.154,9.835 203.154,9.835 C 203.154,9.835 204.359,11.541 204.359,11.541 C 204.359,11.541 205.038,11.541 205.038,11.541 C 205.113,11.541 205.148,11.476 205.148,11.35 C 205.148,11.35 205.148,2.753 205.148,2.753 C 205.134,1.828 205.193,1.269 205.322,1.073 C 205.442,0.908 205.791,0.833 206.366,0.845 C 206.627,0.859 206.76,0.817 206.76,0.717 C 206.76,0.717 206.76,0.397 206.76,0.397 z M 218.035,7.14 C 218.035,7.14 213.87,7.14 213.87,7.14 C 213.87,7.14 215.99,2.135 215.99,2.135 C 215.99,2.135 218.035,7.14 218.035,7.14 z M 211.899,9.244 C 211.734,9.628 211.585,9.922 211.459,10.132 C 211.336,10.339 211.22,10.494 211.111,10.594 C 211.007,10.684 210.897,10.733 210.788,10.746 C 210.671,10.772 210.548,10.785 210.413,10.785 C 210.283,10.785 210.225,10.84 210.238,10.946 C 210.238,10.946 210.238,11.237 210.238,11.237 C 210.238,11.363 210.283,11.427 210.376,11.427 C 210.376,11.427 213.944,11.408 213.944,11.408 C 214.005,11.408 214.042,11.36 214.054,11.257 C 214.054,11.257 214.054,10.985 214.054,10.985 C 214.054,10.852 213.999,10.785 213.889,10.785 C 213.889,10.785 213.476,10.785 213.476,10.785 C 212.975,10.785 212.722,10.594 212.722,10.207 C 212.722,10.061 212.754,9.916 212.817,9.763 C 212.817,9.763 213.566,7.841 213.566,7.841 C 213.566,7.841 218.319,7.841 218.319,7.841 C 218.319,7.841 218.978,9.508 218.978,9.508 C 219.087,9.79 219.143,10.032 219.143,10.226 C 219.143,10.597 218.875,10.785 218.334,10.785 C 218.334,10.785 217.886,10.785 217.886,10.785 C 217.795,10.798 217.751,10.852 217.751,10.946 C 217.751,10.946 217.731,11.237 217.731,11.237 C 217.744,11.363 217.795,11.427 217.886,11.427 C 217.886,11.427 222.131,11.408 222.131,11.408 C 222.267,11.422 222.335,11.363 222.335,11.237 C 222.335,11.237 222.335,10.985 222.335,10.985 C 222.335,10.908 222.316,10.849 222.28,10.804 C 222.232,10.791 222.119,10.785 221.941,10.785 C 221.689,10.785 221.469,10.642 221.282,10.358 C 221.146,10.112 220.891,9.57 220.519,8.73 C 220.151,7.906 219.737,6.965 219.272,5.919 C 218.299,3.66 217.618,2.067 217.227,1.14 C 217.227,1.14 216.778,0.032 216.778,0.032 C 216.778,0.032 216.06,0.032 216.06,0.032 C 216.06,0.032 211.899,9.244 211.899,9.244 z M 230.227,3.121 C 230.213,2.084 230.298,1.431 230.475,1.16 C 230.634,0.924 231.057,0.813 231.749,0.827 C 231.936,0.84 232.033,0.798 232.033,0.698 C 232.033,0.698 232.033,0.358 232.033,0.358 C 232.033,0.29 231.968,0.258 231.838,0.258 C 231.838,0.258 226.892,0.258 226.892,0.258 C 226.815,0.258 226.777,0.287 226.777,0.342 C 226.777,0.342 226.777,0.753 226.777,0.753 C 226.763,0.813 226.909,0.84 227.215,0.827 C 227.852,0.8 228.266,0.911 228.457,1.16 C 228.615,1.392 228.689,1.941 228.676,2.807 C 228.676,2.807 228.676,8.707 228.676,8.707 C 228.689,9.605 228.621,10.177 228.475,10.425 C 228.285,10.678 227.884,10.798 227.27,10.785 C 227.27,10.785 226.967,10.785 226.967,10.785 C 226.828,10.798 226.756,10.852 226.756,10.946 C 226.756,10.946 226.756,11.314 226.756,11.314 C 226.756,11.389 226.808,11.427 226.912,11.427 C 226.912,11.427 235.59,11.408 235.59,11.408 C 235.648,11.408 235.68,11.363 235.68,11.275 C 235.68,11.275 235.68,8.355 235.68,8.355 C 235.68,8.281 235.636,8.242 235.551,8.242 C 235.551,8.242 235.206,8.242 235.206,8.242 C 235.119,8.242 235.08,8.333 235.092,8.516 C 235.08,9.308 234.986,9.851 234.808,10.148 C 234.759,10.261 234.672,10.345 234.543,10.393 C 234.42,10.465 234.223,10.516 233.949,10.555 C 233.435,10.62 232.373,10.669 230.756,10.707 C 230.756,10.707 230.227,10.726 230.227,10.726 C 230.227,10.726 230.227,3.121 230.227,3.121 z"
       id="path18" />
  </g>
  <g
     transform="translate(9.1830406,168.9025)"
     style="fill:#9117ff;fill-rule:evenodd;stroke:none;stroke-width:1pt;stroke-linecap:butt;stroke-linejoin:miter;stroke-dasharray:none"
     id="g20">
    <path
       d="M 10.0372,22.49 C 8.2452,22.102 8.2452,22.102 6.8962,21.65 C 6.3392,21.351 5.7822,21.052 5.2172,20.753 C 3.9812,19.857 3.9812,19.857 2.9392,18.928 C 2.4872,18.323 2.0262,17.717 1.5662,17.112 C 1.2672,16.474 0.9692,15.835 0.67,15.198 C 0.2256,13.744 0.2256,13.744 0,12.396 C 0,11.613 0,10.828 0,10.045 C 0.1455,9.335 0.291,8.624 0.4444,7.914 C 0.5899,7.502 0.7432,7.09 0.8962,6.678 C 1.1952,6.121 1.4942,5.564 1.7932,4.999 C 2.2372,4.442 2.6892,3.876 3.1412,3.311 C 3.4962,2.996 3.8512,2.681 4.2072,2.358 C 4.6512,2.059 5.0962,1.761 5.5482,1.462 C 6.2182,1.163 6.8892,0.865 7.5662,0.566 C 9.2542,0.113 9.2542,0.113 10.0372,0 C 10.8202,0 11.6032,0 12.3952,0 C 13.7352,0.227 13.7352,0.227 15.1972,0.679 C 15.8272,0.977 16.4652,1.276 17.1032,1.575 C 18.3392,2.471 18.3392,2.471 19.3482,3.367 C 19.6632,3.755 19.9772,4.151 20.3012,4.546 C 21.1972,6.008 21.1972,6.008 21.6412,6.905 C 21.7872,7.349 21.9402,7.792 22.0942,8.244 C 22.2072,8.843 22.3192,9.44 22.4322,10.045 C 22.4322,10.828 22.4322,11.613 22.4322,12.396 C 22.2072,13.744 22.2072,13.744 21.7552,15.198 C 21.4552,15.835 21.1562,16.474 20.8582,17.112 C 19.9622,18.339 19.9622,18.339 19.0652,19.348 C 18.6782,19.663 18.2822,19.978 17.8872,20.301 C 17.1032,20.745 16.3192,21.198 15.5282,21.65 C 15.0842,21.795 14.6402,21.949 14.1872,22.102 C 13.5912,22.206 12.9922,22.32 12.3952,22.433 C 11.6122,22.449 10.8292,22.465 10.0372,22.49 z"
       id="path22" />
  </g>
  <g
     transform="translate(13.138041,172.2355)"
     style="fill:#ffffff;fill-rule:evenodd;stroke:none;stroke-width:1pt;stroke-linecap:butt;stroke-linejoin:miter;stroke-dasharray:none"
     id="g24">
    <path
       d="M 12.665,6.311 C 12.665,6.311 7.313,6.311 7.313,6.311 C 7.313,6.311 7.313,8.848 7.313,8.848 C 7.313,8.848 9.53,8.848 9.53,8.848 C 9.53,8.848 9.53,11.854 9.53,11.854 C 9.274,11.96 8.678,12.046 7.953,12.046 C 5.288,12.046 3.412,10.329 3.412,7.356 C 3.412,4.229 5.479,2.687 8.187,2.687 C 9.765,2.687 10.725,2.943 11.514,3.308 C 11.514,3.308 12.195,0.661 12.195,0.661 C 11.492,0.363 10.063,0 8.209,0 C 3.497,0 0.021,2.729 0,7.527 C 0,9.629 0.725,11.495 2.025,12.749 C 3.348,14.007 5.245,14.672 7.867,14.672 C 9.765,14.672 11.662,14.2 12.665,13.858 C 12.665,13.858 12.665,6.311 12.665,6.311 z"
       id="path26" />
  </g>
  <g
     transform="translate(45.231041,171.9955)"
     style="fill:#0087ff;fill-rule:evenodd;stroke:none;stroke-width:1pt;stroke-linecap:butt;stroke-linejoin:miter;stroke-dasharray:none"
     id="g28">
    <path
       d="M 1.146,0 C 1.777,0 2.293,0.516 2.293,1.148 C 2.293,1.778 1.777,2.294 1.146,2.294 C 0.514,2.294 0,1.778 0,1.148 C 0,0.516 0.514,0 1.146,0 z"
       id="path30" />
  </g>
  <g
     transform="translate(45.231041,176.7175)"
     style="fill:#0087ff;fill-rule:evenodd;stroke:none;stroke-width:1pt;stroke-linecap:butt;stroke-linejoin:miter;stroke-dasharray:none"
     id="g32">
    <path
       d="M 1.146,0 C 1.777,0 2.293,0.514 2.293,1.146 C 2.293,1.778 1.777,2.294 1.146,2.294 C 0.514,2.294 0,1.778 0,1.146 C 0,0.514 0.514,0 1.146,0 z"
       id="path34" />
  </g>
  <g
     transform="translate(45.231041,181.4385)"
     style="fill:#0087ff;fill-rule:evenodd;stroke:none;stroke-width:1pt;stroke-linecap:butt;stroke-linejoin:miter;stroke-dasharray:none"
     id="g36">
    <path
       d="M 1.146,0 C 1.777,0 2.293,0.516 2.293,1.147 C 2.293,1.779 1.777,2.293 1.146,2.293 C 0.514,2.293 0,1.779 0,1.147 C 0,0.516 0.514,0 1.146,0 z"
       id="path38" />
  </g>
  <g
     transform="translate(45.231041,186.1605)"
     style="fill:#0087ff;fill-rule:evenodd;stroke:none;stroke-width:1pt;stroke-linecap:butt;stroke-linejoin:miter;stroke-dasharray:none"
     id="g40">
    <path
       d="M 1.146,0 C 1.777,0 2.293,0.515 2.293,1.147 C 2.293,1.778 1.777,2.293 1.146,2.293 C 0.514,2.293 0,1.778 0,1.147 C 0,0.515 0.514,0 1.146,0 z"
       id="path42" />
  </g>
  <g
     transform="translate(45.231041,190.8825)"
     style="fill:#0087ff;fill-rule:evenodd;stroke:none;stroke-width:1pt;stroke-linecap:butt;stroke-linejoin:miter;stroke-dasharray:none"
     id="g44">
    <path
       d="M 1.146,0 C 1.777,0 2.293,0.514 2.293,1.146 C 2.293,1.778 1.777,2.293 1.146,2.293 C 0.514,2.293 0,1.778 0,1.146 C 0,0.514 0.514,0 1.146,0 z"
       id="path46" />
  </g>
  <g
     transform="translate(45.231041,195.6445)"
     style="fill:#0087ff;fill-rule:evenodd;stroke:none;stroke-width:1pt;stroke-linecap:butt;stroke-linejoin:miter;stroke-dasharray:none"
     id="g48">
    <path
       d="M 1.146,0 C 1.777,0 2.293,0.515 2.293,1.146 C 2.293,1.778 1.777,2.293 1.146,2.293 C 0.514,2.293 0,1.778 0,1.146 C 0,0.515 0.514,0 1.146,0 z"
       id="path50" />
  </g>
  <g
     transform="translate(45.231041,200.4065)"
     style="fill:#0087ff;fill-rule:evenodd;stroke:none;stroke-width:1pt;stroke-linecap:butt;stroke-linejoin:miter;stroke-dasharray:none"
     id="g52">
    <path
       d="M 1.146,0 C 1.777,0 2.293,0.516 2.293,1.147 C 2.293,1.779 1.777,2.294 1.146,2.294 C 0.514,2.294 0,1.779 0,1.147 C 0,0.516 0.514,0 1.146,0 z"
       id="path54" />
  </g>
  <g
     transform="translate(45.231041,205.1285)"
     style="fill:#0087ff;fill-rule:evenodd;stroke:none;stroke-width:1pt;stroke-linecap:butt;stroke-linejoin:miter;stroke-dasharray:none"
     id="g56">
    <path
       d="M 1.146,0 C 1.777,0 2.293,0.515 2.293,1.146 C 2.293,1.778 1.777,2.293 1.146,2.293 C 0.514,2.293 0,1.778 0,1.146 C 0,0.515 0.514,0 1.146,0 z"
       id="path58" />
  </g>
  <g
     transform="translate(62.485041,192.0885)"
     style="fill:#0087ff;fill-rule:evenodd;stroke:none;stroke-width:1pt;stroke-linecap:butt;stroke-linejoin:miter;stroke-dasharray:none"
     id="g60">
    <path
       d="M 3.321,6.72 C 3.321,6.122 3.335,5.565 3.356,5.053 C 4.458,4.989 5.34,5.033 6.013,5.184 C 6.659,5.341 7.2,5.654 7.641,6.132 C 8.47,6.964 8.883,8.185 8.883,9.796 C 8.871,11.46 8.445,12.753 7.606,13.678 C 7.088,14.215 6.461,14.548 5.731,14.673 C 5.002,14.798 4.208,14.843 3.356,14.804 C 3.335,14.347 3.321,13.761 3.321,13.041 C 3.321,13.041 3.321,6.72 3.321,6.72 z M 0.537,4.979 C 0.937,4.992 1.215,5.065 1.373,5.203 C 1.51,5.312 1.606,5.616 1.654,6.115 C 1.689,6.604 1.709,7.328 1.709,8.285 C 1.709,8.285 1.709,11.591 1.709,11.591 C 1.709,12.605 1.695,13.338 1.673,13.789 C 1.626,14.222 1.523,14.503 1.373,14.634 C 1.215,14.772 0.899,14.843 0.428,14.843 C 0.428,14.843 0.146,14.843 0.146,14.843 C 0.047,14.843 0,14.884 0,14.964 C 0,14.964 0,15.309 0,15.309 C 0.012,15.422 0.08,15.479 0.201,15.479 C 0.201,15.479 4.957,15.46 4.957,15.46 C 8.752,15.29 10.685,13.422 10.758,9.853 C 10.746,8.215 10.231,6.902 9.21,5.917 C 8.202,4.928 6.854,4.429 5.165,4.416 C 5.165,4.416 0.255,4.416 0.255,4.416 C 0.108,4.416 0.038,4.455 0.038,4.535 C 0.038,4.535 0.038,4.851 0.038,4.851 C 0.047,4.937 0.086,4.979 0.146,4.979 C 0.146,4.979 0.537,4.979 0.537,4.979 z M 17.725,7.012 C 17.725,6.195 17.745,5.568 17.78,5.13 C 17.78,5.13 21.559,5.13 21.559,5.13 C 22.189,5.117 22.5,5.501 22.487,6.281 C 22.487,6.281 22.487,6.611 22.487,6.611 C 22.487,6.736 22.529,6.797 22.615,6.797 C 22.615,6.797 22.986,6.797 22.986,6.797 C 23.041,6.797 23.069,6.729 23.069,6.593 C 23.069,6.593 23.069,4.596 23.069,4.596 C 23.069,4.464 23.005,4.403 22.878,4.416 C 22.878,4.416 14.701,4.416 14.701,4.416 C 14.579,4.416 14.518,4.455 14.518,4.535 C 14.518,4.535 14.518,4.87 14.518,4.87 C 14.518,4.954 14.605,4.992 14.774,4.979 C 15.373,4.967 15.763,5.069 15.946,5.29 C 16.119,5.514 16.202,5.987 16.189,6.707 C 16.189,6.707 16.189,12.157 16.189,12.157 C 16.202,13.422 16.137,14.199 16.001,14.487 C 15.831,14.768 15.395,14.888 14.701,14.843 C 14.579,14.843 14.518,14.89 14.518,14.983 C 14.518,14.983 14.518,15.329 14.518,15.329 C 14.518,15.428 14.566,15.479 14.666,15.479 C 14.666,15.479 23.213,15.46 23.213,15.46 C 23.287,15.46 23.329,15.422 23.341,15.347 C 23.341,15.347 23.341,12.929 23.341,12.929 C 23.341,12.836 23.306,12.781 23.229,12.768 C 23.229,12.768 22.89,12.768 22.89,12.768 C 22.817,12.781 22.778,12.864 22.778,13.021 C 22.792,13.389 22.778,13.69 22.743,13.921 C 22.695,14.167 22.587,14.343 22.422,14.455 C 22.138,14.676 21.431,14.778 20.301,14.765 C 20.301,14.765 17.78,14.765 17.78,14.765 C 17.745,13.984 17.725,13.232 17.725,12.507 C 17.725,12.507 17.725,10.106 17.725,10.106 C 17.725,10.106 20.845,10.106 20.845,10.106 C 21.306,10.106 21.613,10.186 21.773,10.349 C 21.923,10.545 22.001,10.916 22.001,11.466 C 22.001,11.61 22.036,11.671 22.106,11.652 C 22.106,11.652 22.439,11.652 22.439,11.652 C 22.522,11.652 22.564,11.604 22.564,11.501 C 22.564,11.501 22.564,7.969 22.564,7.969 C 22.564,7.844 22.516,7.779 22.42,7.779 C 22.42,7.779 22.141,7.779 22.141,7.779 C 22.093,7.779 22.058,7.793 22.036,7.818 C 22.001,7.869 21.981,7.959 21.981,8.09 C 21.995,8.614 21.911,8.964 21.735,9.139 C 21.556,9.322 21.181,9.405 20.622,9.392 C 20.622,9.392 17.725,9.392 17.725,9.392 C 17.725,9.392 17.725,7.012 17.725,7.012 z M 40.024,5.13 C 40.481,5.053 40.814,5.017 41.026,5.017 C 41.765,5.03 42.35,5.203 42.782,5.536 C 43.198,5.885 43.407,6.362 43.407,6.967 C 43.407,7.162 43.378,7.398 43.317,7.681 C 43.23,7.977 43.073,8.26 42.837,8.528 C 42.603,8.801 42.263,9.014 41.819,9.178 C 41.362,9.335 40.762,9.401 40.024,9.376 C 40.024,9.376 40.024,5.13 40.024,5.13 z M 40.024,10.097 C 40.385,10.055 40.661,10.032 40.839,10.032 C 42.801,10.064 43.796,10.848 43.819,12.391 C 43.806,13.134 43.547,13.722 43.039,14.161 C 42.517,14.615 41.826,14.843 40.958,14.843 C 40.734,14.843 40.423,14.823 40.024,14.788 C 40.024,14.788 40.024,10.097 40.024,10.097 z M 37.13,4.416 C 37,4.416 36.942,4.438 36.961,4.48 C 36.961,4.48 36.961,4.87 36.961,4.87 C 36.961,4.944 37.019,4.979 37.13,4.979 C 37.13,4.979 37.684,4.979 37.684,4.979 C 38.219,4.979 38.488,5.421 38.488,6.304 C 38.488,6.304 38.488,13.329 38.488,13.329 C 38.488,14.349 38.203,14.855 37.63,14.843 C 37.63,14.843 37.038,14.843 37.038,14.843 C 36.923,14.855 36.865,14.897 36.865,14.964 C 36.865,14.964 36.884,15.367 36.884,15.367 C 36.872,15.441 36.917,15.479 37.022,15.479 C 37.022,15.479 41.829,15.46 41.829,15.46 C 43.212,15.472 44.203,15.146 44.801,14.484 C 45.31,13.931 45.57,13.294 45.583,12.583 C 45.583,11.863 45.365,11.255 44.933,10.753 C 44.456,10.154 43.63,9.769 42.45,9.6 C 42.866,9.526 43.39,9.303 44.024,8.934 C 44.309,8.743 44.548,8.483 44.747,8.167 C 44.942,7.847 45.039,7.437 45.039,6.937 C 45.003,5.287 43.948,4.448 41.874,4.416 C 41.874,4.416 37.13,4.416 37.13,4.416 z M 48.949,4.826 C 48.949,4.928 49.054,4.979 49.265,4.979 C 49.938,4.954 50.35,5.017 50.507,5.168 C 50.658,5.335 50.728,5.715 50.715,6.304 C 50.715,6.304 50.715,12.615 50.715,12.615 C 50.728,13.62 50.67,14.247 50.543,14.507 C 50.399,14.763 50.021,14.881 49.41,14.861 C 49.41,14.861 49.176,14.861 49.176,14.861 C 49.012,14.848 48.929,14.897 48.929,15.003 C 48.929,15.003 48.929,15.329 48.929,15.329 C 48.929,15.428 48.964,15.479 49.039,15.479 C 49.039,15.479 53.906,15.46 53.906,15.46 C 54.002,15.472 54.049,15.409 54.049,15.264 C 54.049,15.264 54.049,15.003 54.049,15.003 C 54.063,14.884 53.958,14.836 53.733,14.861 C 53.733,14.861 53.477,14.861 53.477,14.861 C 52.933,14.893 52.585,14.817 52.434,14.638 C 52.299,14.442 52.239,13.905 52.252,13.021 C 52.252,13.021 52.252,7.11 52.252,7.11 C 52.239,6.109 52.319,5.494 52.488,5.27 C 52.665,5.062 53.119,4.967 53.851,4.979 C 53.996,4.992 54.069,4.954 54.069,4.87 C 54.069,4.87 54.069,4.554 54.069,4.554 C 54.069,4.461 54.021,4.416 53.924,4.416 C 53.924,4.416 49.102,4.416 49.102,4.416 C 49,4.416 48.949,4.455 48.949,4.535 C 48.949,4.535 48.949,4.826 48.949,4.826 z M 62.901,4.809 C 63.91,4.822 64.71,5.296 65.304,6.233 C 65.9,7.175 66.201,8.43 66.213,9.991 C 66.201,11.536 65.903,12.768 65.321,13.681 C 64.715,14.586 63.89,15.044 62.846,15.056 C 61.826,15.044 61.006,14.57 60.379,13.633 C 59.736,12.701 59.417,11.47 59.417,9.933 C 59.417,8.323 59.73,7.069 60.363,6.176 C 60.974,5.276 61.823,4.822 62.901,4.809 z M 63.029,4.192 C 61.394,4.205 60.079,4.762 59.087,5.859 C 58.069,6.947 57.553,8.388 57.541,10.182 C 57.553,11.818 58.037,13.137 58.994,14.139 C 59.921,15.156 61.141,15.675 62.655,15.693 C 64.267,15.661 65.57,15.108 66.562,14.036 C 67.567,12.973 68.076,11.584 68.088,9.872 C 68.076,8.115 67.619,6.736 66.716,5.728 C 65.807,4.717 64.578,4.205 63.029,4.192 z M 71.755,4.826 C 71.755,4.928 71.861,4.979 72.072,4.979 C 72.745,4.954 73.157,5.017 73.314,5.168 C 73.464,5.335 73.535,5.715 73.522,6.304 C 73.522,6.304 73.522,12.615 73.522,12.615 C 73.535,13.62 73.477,14.247 73.349,14.507 C 73.206,14.763 72.828,14.881 72.216,14.861 C 72.216,14.861 71.983,14.861 71.983,14.861 C 71.82,14.848 71.737,14.897 71.737,15.003 C 71.737,15.003 71.737,15.329 71.737,15.329 C 71.737,15.428 71.772,15.479 71.845,15.479 C 71.845,15.479 76.712,15.46 76.712,15.46 C 76.809,15.472 76.857,15.409 76.857,15.264 C 76.857,15.264 76.857,15.003 76.857,15.003 C 76.87,14.884 76.764,14.836 76.54,14.861 C 76.54,14.861 76.284,14.861 76.284,14.861 C 75.74,14.893 75.391,14.817 75.241,14.638 C 75.106,14.442 75.045,13.905 75.058,13.021 C 75.058,13.021 75.058,7.11 75.058,7.11 C 75.045,6.109 75.126,5.494 75.295,5.27 C 75.471,5.062 75.925,4.967 76.659,4.979 C 76.802,4.992 76.877,4.954 76.877,4.87 C 76.877,4.87 76.877,4.554 76.877,4.554 C 76.877,4.461 76.829,4.416 76.732,4.416 C 76.732,4.416 71.91,4.416 71.91,4.416 C 71.807,4.416 71.755,4.455 71.755,4.535 C 71.755,4.535 71.755,4.826 71.755,4.826 z M 92.137,4.554 C 92.137,4.461 92.092,4.416 92.009,4.416 C 92.009,4.416 88.054,4.416 88.054,4.416 C 87.929,4.416 87.865,4.461 87.865,4.554 C 87.865,4.554 87.865,4.826 87.865,4.826 C 87.865,4.905 87.887,4.95 87.939,4.964 C 87.98,4.985 88.086,4.998 88.255,4.998 C 88.595,4.998 88.864,5.005 89.059,5.017 C 89.245,5.044 89.382,5.11 89.468,5.222 C 89.619,5.418 89.689,5.965 89.676,6.867 C 89.676,6.867 89.676,12.692 89.676,12.692 C 89.228,12.116 88.78,11.536 88.332,10.948 C 88.332,10.948 84.524,5.785 84.524,5.785 C 84.185,5.335 83.862,4.877 83.554,4.416 C 83.554,4.416 80.211,4.416 80.211,4.416 C 80.118,4.39 80.079,4.528 80.091,4.826 C 80.091,4.905 80.114,4.95 80.166,4.964 C 80.216,4.985 80.329,4.998 80.498,4.998 C 80.837,4.998 81.09,5.005 81.259,5.017 C 81.446,5.056 81.57,5.133 81.631,5.251 C 81.746,5.453 81.797,5.997 81.785,6.887 C 81.785,6.887 81.785,13.294 81.785,13.294 C 81.797,13.994 81.717,14.435 81.542,14.618 C 81.353,14.801 80.959,14.881 80.354,14.861 C 80.226,14.861 80.146,14.884 80.111,14.929 C 80.086,14.976 80.073,15.104 80.073,15.309 C 80.073,15.422 80.124,15.479 80.226,15.479 C 80.226,15.479 84.288,15.46 84.288,15.46 C 84.348,15.447 84.383,15.412 84.396,15.347 C 84.396,15.347 84.396,15.056 84.396,15.056 C 84.409,14.916 84.265,14.848 83.967,14.861 C 83.657,14.861 83.417,14.836 83.241,14.788 C 83.058,14.75 82.92,14.66 82.832,14.522 C 82.684,14.254 82.617,13.575 82.629,12.487 C 82.629,12.487 82.629,6.102 82.629,6.102 C 83.048,6.535 83.462,7.031 83.875,7.594 C 83.875,7.594 88.566,13.901 88.566,13.901 C 88.566,13.901 89.759,15.591 89.759,15.591 C 89.759,15.591 90.431,15.591 90.431,15.591 C 90.505,15.591 90.541,15.527 90.541,15.402 C 90.541,15.402 90.541,6.887 90.541,6.887 C 90.528,5.972 90.586,5.418 90.713,5.222 C 90.832,5.059 91.177,4.985 91.747,4.998 C 92.006,5.012 92.137,4.97 92.137,4.87 C 92.137,4.87 92.137,4.554 92.137,4.554 z M 101.069,10.182 C 101.578,10.182 101.904,10.285 102.054,10.493 C 102.189,10.705 102.253,11.114 102.253,11.719 C 102.253,11.895 102.307,11.978 102.41,11.966 C 102.41,11.966 102.698,11.966 102.698,11.966 C 102.796,11.953 102.845,11.895 102.845,11.796 C 102.845,11.796 102.845,7.949 102.845,7.949 C 102.845,7.837 102.826,7.776 102.791,7.764 C 102.739,7.751 102.621,7.744 102.429,7.744 C 102.31,7.744 102.262,7.83 102.282,8 C 102.295,8.621 102.212,9.027 102.039,9.217 C 101.837,9.408 101.415,9.501 100.761,9.488 C 100.761,9.488 98.503,9.488 98.503,9.488 C 98.503,9.488 98.503,6.816 98.503,6.816 C 98.503,6.035 98.515,5.466 98.538,5.11 C 98.538,5.11 100.928,5.11 100.928,5.11 C 101.795,5.11 102.368,5.181 102.64,5.325 C 102.889,5.501 103.007,5.869 102.996,6.432 C 102.996,6.601 103.021,6.704 103.069,6.742 C 103.124,6.791 103.235,6.81 103.405,6.797 C 103.52,6.797 103.578,6.771 103.578,6.723 C 103.578,6.723 103.578,4.596 103.578,4.596 C 103.578,4.477 103.526,4.416 103.424,4.416 C 103.424,4.416 95.555,4.416 95.555,4.416 C 95.494,4.416 95.465,4.455 95.465,4.535 C 95.465,4.535 95.465,4.925 95.465,4.925 C 95.44,4.972 95.564,4.992 95.837,4.979 C 96.307,4.979 96.594,5.04 96.704,5.168 C 96.799,5.261 96.87,5.498 96.912,5.882 C 96.947,6.281 96.966,6.864 96.966,7.629 C 96.966,7.629 96.966,12.289 96.966,12.289 C 96.979,13.467 96.909,14.199 96.758,14.487 C 96.601,14.756 96.208,14.874 95.574,14.843 C 95.474,14.855 95.426,14.919 95.426,15.041 C 95.426,15.041 95.426,15.329 95.426,15.329 C 95.426,15.428 95.471,15.479 95.555,15.479 C 95.555,15.479 100.445,15.46 100.445,15.46 C 100.531,15.46 100.573,15.422 100.573,15.347 C 100.573,15.347 100.573,15.003 100.573,15.003 C 100.56,14.897 100.505,14.843 100.41,14.843 C 100.41,14.843 100.147,14.843 100.147,14.843 C 99.779,14.843 99.478,14.817 99.245,14.768 C 99.008,14.73 98.838,14.66 98.736,14.56 C 98.566,14.33 98.49,13.556 98.503,12.237 C 98.503,12.237 98.503,10.182 98.503,10.182 C 98.503,10.182 101.069,10.182 101.069,10.182 z M 112.509,4.809 C 113.517,4.822 114.318,5.296 114.913,6.233 C 115.507,7.175 115.808,8.43 115.821,9.991 C 115.808,11.536 115.51,12.768 114.928,13.681 C 114.324,14.586 113.498,15.044 112.455,15.056 C 111.434,15.044 110.615,14.57 109.987,13.633 C 109.344,12.701 109.024,11.47 109.024,9.933 C 109.024,8.323 109.337,7.069 109.971,6.176 C 110.583,5.276 111.431,4.822 112.509,4.809 z M 112.637,4.192 C 111.002,4.205 109.686,4.762 108.695,5.859 C 107.677,6.947 107.162,8.388 107.149,10.182 C 107.162,11.818 107.645,13.137 108.602,14.139 C 109.53,15.156 110.749,15.675 112.262,15.693 C 113.876,15.661 115.178,15.108 116.17,14.036 C 117.175,12.973 117.684,11.584 117.697,9.872 C 117.684,8.115 117.226,6.736 116.324,5.728 C 115.415,4.717 114.186,4.205 112.637,4.192 z M 124.404,5.033 C 125.246,4.982 125.923,4.989 126.433,5.053 C 126.932,5.114 127.316,5.299 127.587,5.606 C 127.94,5.994 128.123,6.499 128.135,7.123 C 128.135,7.674 128.017,8.102 127.78,8.41 C 127.544,8.736 127.233,8.967 126.842,9.104 C 126.474,9.248 126.075,9.338 125.652,9.376 C 125.22,9.425 124.804,9.456 124.404,9.47 C 124.404,9.47 124.404,5.033 124.404,5.033 z M 125.06,10.087 C 125.06,10.087 125.722,10.039 125.722,10.039 C 125.722,10.039 125.86,10.019 125.86,10.019 C 125.86,10.019 126.096,10.388 126.096,10.388 C 127.492,12.551 128.391,14.119 128.797,15.095 C 128.913,15.351 129.009,15.479 129.08,15.479 C 129.08,15.479 131.336,15.46 131.336,15.46 C 131.444,15.46 131.499,15.412 131.499,15.309 C 131.499,15.309 131.499,15.021 131.499,15.021 C 131.499,14.931 131.416,14.881 131.246,14.861 C 130.997,14.823 130.804,14.743 130.664,14.618 C 130.215,14.116 129.249,12.682 127.761,10.314 C 127.761,10.314 127.444,9.78 127.444,9.78 C 129.067,9.28 129.879,8.375 129.879,7.069 C 129.867,6.263 129.569,5.622 128.99,5.149 C 128.391,4.672 127.604,4.429 126.628,4.416 C 126.628,4.416 121.517,4.416 121.517,4.416 C 121.415,4.416 121.364,4.445 121.364,4.499 C 121.364,4.499 121.364,4.801 121.364,4.801 C 121.364,4.88 121.392,4.928 121.454,4.941 C 121.507,4.975 121.626,4.996 121.809,4.996 C 122.327,4.947 122.637,5.05 122.74,5.306 C 122.839,5.574 122.88,6.298 122.868,7.472 C 122.868,7.472 122.868,12.122 122.868,12.122 C 122.868,12.874 122.862,13.46 122.848,13.886 C 122.814,14.337 122.759,14.598 122.685,14.673 C 122.608,14.75 122.468,14.791 122.269,14.804 C 122.087,14.829 121.892,14.843 121.68,14.843 C 121.552,14.843 121.472,14.848 121.434,14.861 C 121.386,14.906 121.364,14.964 121.364,15.041 C 121.364,15.041 121.364,15.347 121.364,15.347 C 121.364,15.434 121.405,15.479 121.492,15.479 C 121.492,15.479 125.953,15.46 125.953,15.46 C 126.048,15.46 126.096,15.422 126.096,15.347 C 126.096,15.347 126.096,14.964 126.096,14.964 C 126.085,14.871 125.982,14.829 125.787,14.843 C 125.128,14.843 124.733,14.788 124.612,14.673 C 124.474,14.494 124.404,13.783 124.404,12.545 C 124.404,12.545 124.404,10.087 124.404,10.087 C 124.404,10.087 125.06,10.087 125.06,10.087 z M 141.806,15.134 C 141.867,15.339 141.937,15.447 142.017,15.46 C 142.017,15.46 142.423,15.46 142.423,15.46 C 142.484,15.472 142.558,15.364 142.644,15.131 C 142.644,15.131 146.35,6.077 146.35,6.077 C 146.35,6.077 146.686,12.673 146.686,12.673 C 146.76,13.594 146.696,14.199 146.495,14.487 C 146.308,14.736 145.886,14.855 145.233,14.843 C 145.019,14.843 144.914,14.909 144.914,15.041 C 144.914,15.041 144.914,15.329 144.914,15.329 C 144.914,15.428 144.968,15.479 145.077,15.479 C 145.077,15.479 149.88,15.46 149.88,15.46 C 149.976,15.46 150.028,15.412 150.028,15.309 C 150.028,15.309 150.028,15.003 150.028,15.003 C 150.028,14.897 149.961,14.843 149.826,14.843 C 149.167,14.855 148.748,14.756 148.571,14.542 C 148.376,14.311 148.267,13.738 148.245,12.823 C 148.245,12.823 147.924,7.168 147.924,7.168 C 147.864,6.115 147.906,5.475 148.052,5.251 C 148.19,5.044 148.537,4.954 149.081,4.979 C 149.352,4.992 149.496,4.954 149.509,4.87 C 149.509,4.87 149.509,4.554 149.509,4.554 C 149.509,4.461 149.464,4.416 149.372,4.416 C 149.372,4.416 146.177,4.416 146.177,4.416 C 146.117,4.448 146.004,4.684 145.841,5.13 C 145.841,5.13 142.574,13.076 142.574,13.076 C 142.574,13.076 142.165,12.157 142.165,12.157 C 141.137,9.814 140.145,7.345 139.188,4.746 C 139.153,4.608 139.115,4.512 139.08,4.464 C 139.032,4.431 138.962,4.416 138.872,4.416 C 138.872,4.416 135.92,4.416 135.92,4.416 C 135.77,4.416 135.694,4.461 135.694,4.554 C 135.694,4.554 135.694,4.787 135.694,4.787 C 135.68,4.915 135.752,4.972 135.902,4.96 C 136.439,4.934 136.788,5.024 136.952,5.222 C 137.083,5.431 137.15,5.882 137.15,6.576 C 137.15,7.36 137.089,8.663 136.967,10.483 C 136.913,11.315 136.855,12.077 136.795,12.765 C 136.724,13.463 136.657,13.936 136.596,14.196 C 136.542,14.427 136.414,14.586 136.209,14.673 C 135.975,14.785 135.627,14.843 135.156,14.843 C 134.993,14.855 134.91,14.916 134.91,15.021 C 134.91,15.021 134.91,15.329 134.91,15.329 C 134.91,15.428 134.961,15.479 135.066,15.479 C 135.066,15.479 139.038,15.46 139.038,15.46 C 139.157,15.46 139.217,15.412 139.217,15.309 C 139.217,15.309 139.217,15.056 139.217,15.056 C 139.217,14.916 139.105,14.843 138.881,14.843 C 138.391,14.874 138.062,14.768 137.885,14.522 C 137.71,14.279 137.639,13.713 137.678,12.823 C 137.678,12.823 138.027,6.097 138.027,6.097 C 138.027,6.097 141.806,15.134 141.806,15.134 z M 161.362,11.232 C 161.362,11.232 157.237,11.232 157.237,11.232 C 157.237,11.232 159.337,6.275 159.337,6.275 C 159.337,6.275 161.362,11.232 161.362,11.232 z M 155.285,13.316 C 155.122,13.697 154.974,13.988 154.849,14.196 C 154.728,14.401 154.613,14.555 154.504,14.653 C 154.402,14.743 154.293,14.791 154.184,14.804 C 154.069,14.829 153.947,14.843 153.813,14.843 C 153.684,14.843 153.627,14.897 153.64,15.003 C 153.64,15.003 153.64,15.29 153.64,15.29 C 153.64,15.415 153.684,15.479 153.778,15.479 C 153.778,15.479 157.311,15.46 157.311,15.46 C 157.372,15.46 157.407,15.412 157.42,15.309 C 157.42,15.309 157.42,15.041 157.42,15.041 C 157.42,14.909 157.365,14.843 157.256,14.843 C 157.256,14.843 156.846,14.843 156.846,14.843 C 156.35,14.843 156.101,14.653 156.101,14.269 C 156.101,14.126 156.132,13.981 156.194,13.831 C 156.194,13.831 156.936,11.927 156.936,11.927 C 156.936,11.927 161.643,11.927 161.643,11.927 C 161.643,11.927 162.296,13.578 162.296,13.578 C 162.405,13.856 162.46,14.097 162.46,14.289 C 162.46,14.656 162.194,14.843 161.66,14.843 C 161.66,14.843 161.214,14.843 161.214,14.843 C 161.125,14.855 161.081,14.909 161.081,15.003 C 161.081,15.003 161.061,15.29 161.061,15.29 C 161.074,15.415 161.125,15.479 161.214,15.479 C 161.214,15.479 165.42,15.46 165.42,15.46 C 165.554,15.472 165.622,15.415 165.622,15.29 C 165.622,15.29 165.622,15.041 165.622,15.041 C 165.622,14.964 165.602,14.906 165.567,14.861 C 165.519,14.848 165.407,14.843 165.231,14.843 C 164.981,14.843 164.764,14.702 164.578,14.42 C 164.444,14.177 164.191,13.639 163.823,12.806 C 163.459,11.991 163.048,11.059 162.587,10.022 C 161.625,7.786 160.949,6.208 160.562,5.29 C 160.562,5.29 160.117,4.192 160.117,4.192 C 160.117,4.192 159.407,4.192 159.407,4.192 C 159.407,4.192 155.285,13.316 155.285,13.316 z M 160.959,1.523 C 161.231,1.299 161.429,1.116 161.551,0.972 C 161.666,0.847 161.724,0.707 161.724,0.551 C 161.724,0.384 161.672,0.25 161.57,0.15 C 161.458,0.051 161.317,0 161.141,0 C 160.971,0 160.805,0.07 160.642,0.205 C 160.465,0.374 160.252,0.678 160.005,1.12 C 160.005,1.12 158.949,2.944 158.949,2.944 C 158.949,2.944 159.324,2.944 159.324,2.944 C 159.324,2.944 160.959,1.523 160.959,1.523 z M 173.408,12.346 C 173.42,13.447 173.346,14.151 173.19,14.459 C 173.001,14.759 172.582,14.893 171.935,14.861 C 171.74,14.861 171.618,14.871 171.57,14.89 C 171.503,14.903 171.471,14.945 171.471,15.021 C 171.471,15.021 171.471,15.329 171.471,15.329 C 171.458,15.428 171.503,15.479 171.605,15.479 C 171.605,15.479 176.71,15.46 176.71,15.46 C 176.771,15.46 176.806,15.428 176.819,15.367 C 176.819,15.367 176.819,14.964 176.819,14.964 C 176.844,14.884 176.684,14.843 176.338,14.843 C 175.705,14.855 175.321,14.781 175.186,14.618 C 175.116,14.51 175.058,14.219 175.017,13.735 C 174.965,13.245 174.943,12.598 174.943,11.793 C 174.943,11.793 174.943,5.296 174.943,5.296 C 174.943,5.296 177.401,5.296 177.401,5.296 C 177.891,5.283 178.175,5.558 178.255,6.122 C 178.255,6.122 178.438,7.296 178.438,7.296 C 178.438,7.408 178.496,7.466 178.607,7.466 C 178.607,7.466 178.918,7.466 178.918,7.466 C 178.986,7.475 179.023,7.44 179.037,7.35 C 179.037,7.35 179.037,4.649 179.037,4.649 C 179.037,4.48 178.972,4.403 178.844,4.416 C 178.844,4.416 169.5,4.416 169.5,4.416 C 169.365,4.403 169.304,4.48 169.317,4.646 C 169.317,4.646 169.317,7.35 169.317,7.35 C 169.317,7.44 169.352,7.475 169.426,7.466 C 169.426,7.466 169.743,7.466 169.743,7.466 C 169.852,7.466 169.909,7.408 169.909,7.296 C 169.909,7.296 170.098,6.122 170.098,6.122 C 170.159,5.795 170.252,5.571 170.37,5.446 C 170.499,5.347 170.693,5.296 170.953,5.296 C 170.953,5.296 173.408,5.296 173.408,5.296 C 173.408,5.296 173.408,12.346 173.408,12.346 z M 182.594,4.826 C 182.594,4.928 182.7,4.979 182.911,4.979 C 183.584,4.954 183.996,5.017 184.153,5.168 C 184.303,5.335 184.374,5.715 184.361,6.304 C 184.361,6.304 184.361,12.615 184.361,12.615 C 184.374,13.62 184.316,14.247 184.188,14.507 C 184.045,14.763 183.667,14.881 183.055,14.861 C 183.055,14.861 182.822,14.861 182.822,14.861 C 182.659,14.848 182.576,14.897 182.576,15.003 C 182.576,15.003 182.576,15.329 182.576,15.329 C 182.576,15.428 182.61,15.479 182.684,15.479 C 182.684,15.479 187.551,15.46 187.551,15.46 C 187.648,15.472 187.696,15.409 187.696,15.264 C 187.696,15.264 187.696,15.003 187.696,15.003 C 187.709,14.884 187.603,14.836 187.378,14.861 C 187.378,14.861 187.123,14.861 187.123,14.861 C 186.579,14.893 186.23,14.817 186.08,14.638 C 185.945,14.442 185.884,13.905 185.897,13.021 C 185.897,13.021 185.897,7.11 185.897,7.11 C 185.884,6.109 185.964,5.494 186.134,5.27 C 186.31,5.062 186.764,4.967 187.497,4.979 C 187.641,4.992 187.714,4.954 187.714,4.87 C 187.714,4.87 187.714,4.554 187.714,4.554 C 187.714,4.461 187.667,4.416 187.571,4.416 C 187.571,4.416 182.749,4.416 182.749,4.416 C 182.646,4.416 182.594,4.455 182.594,4.535 C 182.594,4.535 182.594,4.826 182.594,4.826 z M 199.814,7.942 C 199.888,7.955 199.929,7.917 199.942,7.827 C 199.962,7.741 199.955,7.55 199.923,7.248 C 199.923,7.248 199.814,4.746 199.814,4.746 C 198.844,4.352 197.929,4.16 197.062,4.173 C 195.251,4.185 193.814,4.723 192.749,5.785 C 191.67,6.847 191.126,8.295 191.113,10.125 C 191.126,11.764 191.589,13.089 192.502,14.099 C 193.388,15.131 194.546,15.661 195.98,15.693 C 196.691,15.675 197.293,15.565 197.789,15.367 C 198.297,15.163 198.707,14.931 199.014,14.676 C 199.337,14.394 199.575,14.148 199.724,13.931 C 199.856,13.7 199.923,13.553 199.923,13.489 C 199.923,13.44 199.901,13.402 199.853,13.377 C 199.853,13.377 199.552,13.162 199.552,13.162 C 199.491,13.101 199.382,13.179 199.225,13.399 C 198.541,14.228 197.673,14.65 196.621,14.663 C 195.555,14.65 194.677,14.164 193.997,13.201 C 193.286,12.269 192.927,11.072 192.915,9.61 C 192.927,8.192 193.263,7.047 193.922,6.18 C 194.575,5.308 195.43,4.867 196.489,4.848 C 197.193,4.867 197.811,5.123 198.342,5.616 C 198.864,6.128 199.187,6.774 199.315,7.558 C 199.34,7.814 199.395,7.942 199.478,7.942 C 199.478,7.942 199.814,7.942 199.814,7.942 z M 210.902,11.232 C 210.902,11.232 206.777,11.232 206.777,11.232 C 206.777,11.232 208.877,6.275 208.877,6.275 C 208.877,6.275 210.902,11.232 210.902,11.232 z M 204.825,13.316 C 204.662,13.697 204.514,13.988 204.39,14.196 C 204.268,14.401 204.153,14.555 204.045,14.653 C 203.942,14.743 203.834,14.791 203.724,14.804 C 203.609,14.829 203.488,14.843 203.353,14.843 C 203.225,14.843 203.168,14.897 203.18,15.003 C 203.18,15.003 203.18,15.29 203.18,15.29 C 203.18,15.415 203.225,15.479 203.318,15.479 C 203.318,15.479 206.851,15.46 206.851,15.46 C 206.912,15.46 206.947,15.412 206.96,15.309 C 206.96,15.309 206.96,15.041 206.96,15.041 C 206.96,14.909 206.905,14.843 206.796,14.843 C 206.796,14.843 206.387,14.843 206.387,14.843 C 205.891,14.843 205.641,14.653 205.641,14.269 C 205.641,14.126 205.673,13.981 205.734,13.831 C 205.734,13.831 206.476,11.927 206.476,11.927 C 206.476,11.927 211.183,11.927 211.183,11.927 C 211.183,11.927 211.837,13.578 211.837,13.578 C 211.945,13.856 212,14.097 212,14.289 C 212,14.656 211.734,14.843 211.2,14.843 C 211.2,14.843 210.755,14.843 210.755,14.843 C 210.666,14.855 210.621,14.909 210.621,15.003 C 210.621,15.003 210.601,15.29 210.601,15.29 C 210.614,15.415 210.666,15.479 210.755,15.479 C 210.755,15.479 214.961,15.46 214.961,15.46 C 215.094,15.472 215.162,15.415 215.162,15.29 C 215.162,15.29 215.162,15.041 215.162,15.041 C 215.162,14.964 215.142,14.906 215.107,14.861 C 215.059,14.848 214.947,14.843 214.771,14.843 C 214.522,14.843 214.304,14.702 214.119,14.42 C 213.984,14.177 213.731,13.639 213.363,12.806 C 212.999,11.991 212.588,11.059 212.128,10.022 C 211.165,7.786 210.49,6.208 210.102,5.29 C 210.102,5.29 209.658,4.192 209.658,4.192 C 209.658,4.192 208.947,4.192 208.947,4.192 C 208.947,4.192 204.825,13.316 204.825,13.316 z"
       id="path62" />
  </g>
</svg>
